<?xml version="1.0" encoding="utf-8"?>
<!-- Generator: Adobe Illustrator 19.2.1, SVG Export Plug-In . SVG Version: 6.00 Build 0)  -->
<svg version="1.1" id="Layer_1" xmlns="http://www.w3.org/2000/svg" xmlns:xlink="http://www.w3.org/1999/xlink" x="0px" y="0px"
	 viewBox="0 0 264 216" style="enable-background:new 0 0 264 216;" xml:space="preserve">
<style type="text/css">
	.st0{fill-rule:evenodd;clip-rule:evenodd;fill:#404D61;}
	.st1{fill-rule:evenodd;clip-rule:evenodd;fill:#B8C6D7;}
	.st2{fill-rule:evenodd;clip-rule:evenodd;fill:#A8B9CE;}
</style>
<path class="st0" d="M91.4,87.1c0.2,0,0.4,0.2,0.4,0.4s-0.2,0.4-0.4,0.4H33.6c-0.2,0-0.4-0.2-0.4-0.4s0.2-0.4,0.4-0.4H91.4z"/>
<path class="st0" d="M230,87.1c0.2,0,0.4,0.2,0.4,0.4s-0.2,0.4-0.4,0.4h-57.4c-0.2,0-0.4-0.2-0.4-0.4s0.2-0.4,0.4-0.4H230z"/>
<path class="st1" d="M88.8,138.6c0.2,0,0.4,0.2,0.4,0.4s-0.2,0.4-0.4,0.4H37.2c-0.2,0-0.4-0.2-0.4-0.4s0.2-0.4,0.4-0.4H88.8z"/>
<path class="st1" d="M226.7,138.6c0.2,0,0.4,0.2,0.4,0.4s-0.2,0.4-0.4,0.4h-51.5c-0.2,0-0.4-0.2-0.4-0.4s0.2-0.4,0.4-0.4H226.7z"/>
<path class="st2" d="M193.5,64.8h-38.6c-0.2,0-0.4-0.2-0.4-0.4l0,0c0-1.6,0.3-3.1,1-4.5c0.7-1.4,1.7-2.7,2.9-3.7
	c1.3-1,2.7-1.7,4.2-2c1.4-0.3,2.8-0.3,4.2,0c0-1.3,0.3-2.5,0.9-3.6c0.6-1.2,1.6-2.3,2.8-3c1.2-0.7,2.6-1.1,4-1.2c1.4,0,2.8,0.3,4,1
	c1.2,0.7,2.2,1.7,2.9,2.9c0.6,1.1,1,2.3,1,3.6c1.4-0.2,2.7,0,4,0.3c1.4,0.4,2.8,1.1,3.9,2.1c1.1,1,2,2.2,2.6,3.6
	c0.6,1.4,0.9,2.9,0.8,4.4C193.9,64.6,193.7,64.8,193.5,64.8L193.5,64.8L193.5,64.8z M155.2,64.1h37.9c0-1.3-0.3-2.6-0.8-3.7
	c-0.5-1.3-1.4-2.4-2.4-3.3c-1.1-0.9-2.3-1.6-3.6-2c-1.3-0.4-2.7-0.5-4.1-0.3c0,0,0,0-0.1,0c-0.2,0-0.4-0.2-0.4-0.4
	c0-1.3-0.3-2.5-0.9-3.6c-0.6-1.1-1.5-2-2.6-2.6c-1.1-0.6-2.4-0.9-3.6-0.9c-1.2,0-2.5,0.4-3.6,1.1c-1.1,0.7-2,1.6-2.6,2.7
	c-0.6,1.1-0.9,2.4-0.8,3.7h0c0,0,0,0.1,0,0.1c0,0.2-0.2,0.3-0.4,0.3c-1.4-0.4-2.9-0.4-4.4-0.1c-1.4,0.3-2.8,0.9-3.9,1.8
	c-1.2,0.9-2.1,2.1-2.7,3.4C155.6,61.4,155.3,62.7,155.2,64.1z"/>
<polygon class="st1" points="92.8,85 170.4,85 131.6,65 "/>
<rect x="37.2" y="141.7" class="st1" width="189.5" height="2.8"/>
<rect x="172.6" y="90.6" class="st1" width="2.6" height="48.3"/>
<rect x="37.2" y="90.6" class="st1" width="189.5" height="2.5"/>
<path class="st0" d="M172.2,90.6c0-0.2,0.2-0.4,0.4-0.4c0.2,0,0.4,0.2,0.4,0.4v48.3c0,0.2-0.2,0.4-0.4,0.4c-0.2,0-0.4-0.2-0.4-0.4
	V90.6z"/>
<rect x="91.4" y="85" class="st1" width="81.2" height="2.8"/>
<rect x="88.8" y="90.6" class="st1" width="2.6" height="48.3"/>
<path class="st0" d="M35.3,144.9c-0.2,0-0.4-0.2-0.4-0.4c0-0.2,0.2-0.4,0.4-0.4h193.3c0.2,0,0.4,0.2,0.4,0.4c0,0.2-0.2,0.4-0.4,0.4
	H35.3z"/>
<path class="st0" d="M48.3,148.2c-0.3,0-0.5,0.4-0.3,0.6c0.1,0.1,0.1,0.1,0.3,0.1h4.3c0.3,0,0.5-0.4,0.3-0.6
	c-0.1-0.1-0.1-0.1-0.3-0.1H48.3L48.3,148.2z M215.6,148.9c0.3,0,0.5-0.4,0.3-0.6c-0.1-0.1-0.1-0.1-0.3-0.1h-4.5
	c-0.3,0-0.5,0.4-0.3,0.6c0.1,0.1,0.1,0.1,0.3,0.1H215.6L215.6,148.9z M208.2,148.9c0.3,0,0.5-0.4,0.3-0.6c-0.1-0.1-0.1-0.1-0.3-0.1
	h-4.3c-0.3,0-0.5,0.4-0.3,0.6c0.1,0.1,0.1,0.1,0.3,0.1H208.2L208.2,148.9z M200.3,148.9c0.3,0,0.5-0.4,0.3-0.6
	c-0.1-0.1-0.1-0.1-0.3-0.1h-28.1c-0.3,0-0.5,0.4-0.3,0.6c0.1,0.1,0.1,0.1,0.3,0.1H200.3L200.3,148.9z M169.3,148.9
	c0.3,0,0.5-0.4,0.3-0.6c-0.1-0.1-0.1-0.1-0.3-0.1H165c-0.3,0-0.5,0.4-0.3,0.6c0.1,0.1,0.1,0.1,0.3,0.1H169.3L169.3,148.9z
	 M161.4,148.9c0.3,0,0.5-0.4,0.3-0.6c-0.1-0.1-0.1-0.1-0.3-0.1h-28.1c-0.3,0-0.5,0.4-0.3,0.6c0.1,0.1,0.1,0.1,0.3,0.1H161.4
	L161.4,148.9z M130.4,148.9c0.3,0,0.5-0.4,0.3-0.6c-0.1-0.1-0.1-0.1-0.3-0.1h-4.3c-0.3,0-0.5,0.4-0.3,0.6c0.1,0.1,0.1,0.1,0.3,0.1
	H130.4L130.4,148.9z M122.5,148.9c0.3,0,0.5-0.4,0.3-0.6c-0.1-0.1-0.1-0.1-0.3-0.1H94.4c-0.3,0-0.5,0.4-0.3,0.6
	c0.1,0.1,0.1,0.1,0.3,0.1H122.5L122.5,148.9z M91.5,148.9c0.3,0,0.5-0.4,0.3-0.6c-0.1-0.1-0.1-0.1-0.3-0.1h-4.3
	c-0.3,0-0.5,0.4-0.3,0.6c0.1,0.1,0.1,0.1,0.3,0.1H91.5L91.5,148.9z M83.6,148.9c0.3,0,0.5-0.4,0.3-0.6c-0.1-0.1-0.1-0.1-0.3-0.1
	H55.5c-0.3,0-0.5,0.4-0.3,0.6c0.1,0.1,0.1,0.1,0.3,0.1H83.6z"/>
<path class="st0" d="M107.5,85.3c-0.2,0-0.4-0.2-0.4-0.4s0.2-0.4,0.4-0.4h4.8c0.2,0,0.4,0.2,0.4,0.4s-0.2,0.4-0.4,0.4H107.5
	L107.5,85.3z M113.9,85.3h58.3v4.9H91.7v-4.9h11.6c0.2,0,0.4-0.2,0.4-0.4s-0.2-0.4-0.4-0.4H91.4h0c-0.2,0-0.4,0.2-0.4,0.4v5.6v0
	c0,0.2,0.2,0.4,0.4,0.4h81.2h0c0.2,0,0.4-0.2,0.4-0.4V85v0c0-0.2-0.2-0.4-0.4-0.4h-58.6c-0.2,0-0.4,0.2-0.4,0.4
	S113.7,85.3,113.9,85.3z"/>
<path class="st0" d="M85.9,141.4L85.9,141.4h92.2c0.2,0,0.4,0.2,0.4,0.4v0v2.8c0,0.2-0.2,0.4-0.4,0.4h0H85.9c-0.2,0-0.4-0.2-0.4-0.4
	v0v-2.8C85.5,141.5,85.7,141.4,85.9,141.4L85.9,141.4z M177.7,142.1H86.2v2.1h91.5V142.1z"/>
<path class="st0" d="M170.4,85.3c-0.2,0-0.4-0.2-0.4-0.4s0.2-0.4,0.4-0.4l5.2,0l-44-22.6l-44,22.6l5.2,0c0.2,0,0.4,0.2,0.4,0.4
	s-0.2,0.4-0.4,0.4l-6.7,0c-0.1,0-0.3-0.1-0.3-0.2c-0.1-0.2,0-0.4,0.2-0.5l45.5-23.4v0c0.1-0.1,0.2-0.1,0.3,0l45.5,23.4l0,0
	c0.1,0.1,0.2,0.2,0.2,0.3c0,0.2-0.2,0.4-0.4,0.4L170.4,85.3z"/>
<path class="st0" d="M122.6,73.9c-0.2,0-0.4-0.2-0.4-0.4s0.2-0.4,0.4-0.4h17.5c0.2,0,0.4,0.2,0.4,0.4s-0.2,0.4-0.4,0.4H122.6
	L122.6,73.9z M127.5,69.8c-0.2,0-0.4-0.2-0.4-0.4c0-0.2,0.2-0.4,0.4-0.4h7.5c0.2,0,0.4,0.2,0.4,0.4c0,0.2-0.2,0.4-0.4,0.4H127.5z"/>
<path class="st0" d="M91.4,90.2c0.2,0,0.4,0.2,0.4,0.4S91.6,91,91.4,91H33.9c-0.2,0-0.4-0.2-0.4-0.4s0.2-0.4,0.4-0.4H91.4z"/>
<path class="st0" d="M230,90.2c0.2,0,0.4,0.2,0.4,0.4S230.2,91,230,91h-57.4c-0.2,0-0.4-0.2-0.4-0.4s0.2-0.4,0.4-0.4H230z"/>
<polygon class="st1" points="100.4,90.6 106.7,90.6 106.7,95.7 104.7,95.7 105.6,133.9 106.7,133.9 106.7,138.9 100.4,138.9 
	100.4,133.9 101.8,133.9 101.8,95.7 100.4,95.7 "/>
<path class="st0" d="M96.8,133.5L96.8,133.5h9.9c0.2,0,0.4,0.2,0.4,0.4v0v5.1c0,0.2-0.2,0.4-0.4,0.4h0h-9.9c-0.2,0-0.4-0.2-0.4-0.4
	v0v-5.1C96.4,133.7,96.6,133.5,96.8,133.5L96.8,133.5z M106.4,134.2h-9.2v4.3h9.2V134.2z"/>
<path class="st0" d="M96.8,90.2L96.8,90.2h9.9c0.2,0,0.4,0.2,0.4,0.4v0v5.1c0,0.2-0.2,0.4-0.4,0.4h0h-9.9c-0.2,0-0.4-0.2-0.4-0.4v0
	v-5.1C96.4,90.4,96.6,90.2,96.8,90.2L96.8,90.2z M106.4,91h-9.2v4.3h9.2V91z"/>
<path class="st0" d="M98.7,95.3h6c0.2,0,0.4,0.2,0.4,0.4l0,0l0.9,38.2c0,0.2-0.2,0.4-0.4,0.4h0v0h-7.8c-0.2,0-0.4-0.2-0.4-0.4l0,0
	l0.9-38.2C98.3,95.5,98.5,95.3,98.7,95.3L98.7,95.3L98.7,95.3z M104.4,96H99l-0.9,37.5h7L104.4,96z"/>
<polygon class="st1" points="160.8,90.6 167.2,90.6 167.2,95.7 165.2,95.7 166,133.9 167.2,133.9 167.2,138.9 160.8,138.9 
	160.8,133.9 162.2,133.9 162.2,95.7 160.8,95.7 "/>
<path class="st0" d="M157.2,133.5L157.2,133.5h9.9c0.2,0,0.4,0.2,0.4,0.4v0v5.1c0,0.2-0.2,0.4-0.4,0.4h0h-9.9
	c-0.2,0-0.4-0.2-0.4-0.4v0v-5.1C156.9,133.7,157,133.5,157.2,133.5L157.2,133.5z M166.8,134.2h-9.2v4.3h9.2V134.2z"/>
<path class="st0" d="M157.2,90.2L157.2,90.2h9.9c0.2,0,0.4,0.2,0.4,0.4v0v5.1c0,0.2-0.2,0.4-0.4,0.4h0h-9.9c-0.2,0-0.4-0.2-0.4-0.4
	v0v-5.1C156.9,90.4,157,90.2,157.2,90.2L157.2,90.2z M166.8,91h-9.2v4.3h9.2V91z"/>
<path class="st0" d="M159.1,95.3h6c0.2,0,0.4,0.2,0.4,0.4l0,0l0.9,38.2c0,0.2-0.2,0.4-0.4,0.4h0v0h-7.8c-0.2,0-0.4-0.2-0.4-0.4l0,0
	l0.9-38.2C158.8,95.5,158.9,95.3,159.1,95.3L159.1,95.3L159.1,95.3z M164.8,96h-5.3l-0.9,37.5h7L164.8,96z"/>
<polygon class="st1" points="130.6,90.6 136.9,90.6 136.9,95.7 134.9,95.7 135.8,133.9 136.9,133.9 136.9,138.9 130.6,138.9 
	130.6,133.9 132,133.9 132,95.7 130.6,95.7 "/>
<path class="st0" d="M127,133.5L127,133.5h9.9c0.2,0,0.4,0.2,0.4,0.4v0v5.1c0,0.2-0.2,0.4-0.4,0.4h0H127c-0.2,0-0.4-0.2-0.4-0.4v0
	v-5.1C126.7,133.7,126.8,133.5,127,133.5L127,133.5z M136.6,134.2h-9.2v4.3h9.2V134.2z"/>
<path class="st0" d="M127,90.2L127,90.2h9.9c0.2,0,0.4,0.2,0.4,0.4v0v5.1c0,0.2-0.2,0.4-0.4,0.4h0H127c-0.2,0-0.4-0.2-0.4-0.4v0
	v-5.1C126.7,90.4,126.8,90.2,127,90.2L127,90.2z M136.6,91h-9.2v4.3h9.2V91z"/>
<path class="st0" d="M128.9,95.3h6c0.2,0,0.4,0.2,0.4,0.4l0,0l0.9,38.2c0,0.2-0.2,0.4-0.4,0.4h0v0H128c-0.2,0-0.4-0.2-0.4-0.4l0,0
	l0.9-38.2C128.6,95.5,128.7,95.3,128.9,95.3L128.9,95.3L128.9,95.3z M134.6,96h-5.3l-0.9,37.5h7L134.6,96z"/>
<path class="st0" d="M113.4,99.8c-0.2,0.1-0.4,0.1-0.5-0.1c-0.1-0.2-0.1-0.4,0.1-0.5c1.2-0.7,2.5-1.1,3.8-1.1c1.3,0,2.7,0.4,3.8,1.1
	c0.2,0.1,0.2,0.3,0.1,0.5c-0.1,0.2-0.3,0.2-0.5,0.1c-1.1-0.7-2.3-1-3.5-1C115.7,98.8,114.5,99.1,113.4,99.8z"/>
<path class="st0" d="M116.5,98.4c0-0.2,0.2-0.4,0.4-0.4s0.4,0.2,0.4,0.4v11.3c0,0.2-0.2,0.4-0.4,0.4s-0.4-0.2-0.4-0.4V98.4z"/>
<path class="st0" d="M112.8,101.6c0-0.2,0.2-0.4,0.4-0.4s0.4,0.2,0.4,0.4v7.7h6.6v-8.4c0-0.2,0.2-0.4,0.4-0.4c0.2,0,0.4,0.2,0.4,0.4
	v8.8v0c0,0.2-0.2,0.4-0.4,0.4h-7.3h0c-0.2,0-0.4-0.2-0.4-0.4V101.6z"/>
<path class="st0" d="M78.1,99.8c-0.2,0.1-0.4,0.1-0.5-0.1c-0.1-0.2-0.1-0.4,0.1-0.5c1.2-0.7,2.5-1.1,3.8-1.1c1.3,0,2.7,0.4,3.8,1.1
	c0.2,0.1,0.2,0.3,0.1,0.5c-0.1,0.2-0.3,0.2-0.5,0.1c-1.1-0.7-2.3-1-3.5-1C80.3,98.8,79.1,99.1,78.1,99.8z"/>
<path class="st0" d="M81.2,98.4c0-0.2,0.2-0.4,0.4-0.4s0.4,0.2,0.4,0.4v11.3c0,0.2-0.2,0.4-0.4,0.4s-0.4-0.2-0.4-0.4V98.4z"/>
<path class="st0" d="M77.5,101.6c0-0.2,0.2-0.4,0.4-0.4s0.4,0.2,0.4,0.4v7.7h6.6v-8.4c0-0.2,0.2-0.4,0.4-0.4c0.2,0,0.4,0.2,0.4,0.4
	v8.8v0c0,0.2-0.2,0.4-0.4,0.4h-7.3h0c-0.2,0-0.4-0.2-0.4-0.4V101.6z"/>
<path class="st0" d="M78.1,119.3c-0.2,0.1-0.4,0.1-0.5-0.1c-0.1-0.2-0.1-0.4,0.1-0.5c1.2-0.7,2.5-1.1,3.8-1.1c1.3,0,2.7,0.4,3.8,1.1
	c0.2,0.1,0.2,0.3,0.1,0.5c-0.1,0.2-0.3,0.2-0.5,0.1c-1.1-0.7-2.3-1-3.5-1C80.3,118.3,79.1,118.6,78.1,119.3z"/>
<path class="st0" d="M81.2,118c0-0.2,0.2-0.4,0.4-0.4s0.4,0.2,0.4,0.4v11.3c0,0.2-0.2,0.4-0.4,0.4s-0.4-0.2-0.4-0.4V118z"/>
<path class="st0" d="M77.5,121.1c0-0.2,0.2-0.4,0.4-0.4s0.4,0.2,0.4,0.4v7.7h6.6v-8.4c0-0.2,0.2-0.4,0.4-0.4c0.2,0,0.4,0.2,0.4,0.4
	v8.8v0c0,0.2-0.2,0.4-0.4,0.4h-7.3h0c-0.2,0-0.4-0.2-0.4-0.4V121.1z"/>
<path class="st0" d="M62.5,99.8c-0.2,0.1-0.4,0.1-0.5-0.1s-0.1-0.4,0.1-0.5c1.2-0.7,2.5-1.1,3.8-1.1c1.3,0,2.7,0.4,3.8,1.1
	c0.2,0.1,0.2,0.3,0.1,0.5c-0.1,0.2-0.3,0.2-0.5,0.1c-1.1-0.7-2.3-1-3.5-1C64.7,98.8,63.5,99.1,62.5,99.8z"/>
<path class="st0" d="M65.6,98.4c0-0.2,0.2-0.4,0.4-0.4s0.4,0.2,0.4,0.4v11.3c0,0.2-0.2,0.4-0.4,0.4s-0.4-0.2-0.4-0.4V98.4z"/>
<path class="st0" d="M61.9,101.6c0-0.2,0.2-0.4,0.4-0.4s0.4,0.2,0.4,0.4v7.7h6.6v-8.4c0-0.2,0.2-0.4,0.4-0.4c0.2,0,0.4,0.2,0.4,0.4
	v8.8v0c0,0.2-0.2,0.4-0.4,0.4h-7.3h0c-0.2,0-0.4-0.2-0.4-0.4V101.6z"/>
<path class="st0" d="M62.5,119.3c-0.2,0.1-0.4,0.1-0.5-0.1c-0.1-0.2-0.1-0.4,0.1-0.5c1.2-0.7,2.5-1.1,3.8-1.1c1.3,0,2.7,0.4,3.8,1.1
	c0.2,0.1,0.2,0.3,0.1,0.5c-0.1,0.2-0.3,0.2-0.5,0.1c-1.1-0.7-2.3-1-3.5-1C64.7,118.3,63.5,118.6,62.5,119.3z"/>
<path class="st0" d="M65.6,118c0-0.2,0.2-0.4,0.4-0.4s0.4,0.2,0.4,0.4v11.3c0,0.2-0.2,0.4-0.4,0.4s-0.4-0.2-0.4-0.4V118z"/>
<path class="st0" d="M61.9,121.1c0-0.2,0.2-0.4,0.4-0.4s0.4,0.2,0.4,0.4v7.7h6.6v-8.4c0-0.2,0.2-0.4,0.4-0.4c0.2,0,0.4,0.2,0.4,0.4
	v8.8v0c0,0.2-0.2,0.4-0.4,0.4h-7.3h0c-0.2,0-0.4-0.2-0.4-0.4V121.1z"/>
<path class="st0" d="M46.9,99.8c-0.2,0.1-0.4,0.1-0.5-0.1s-0.1-0.4,0.1-0.5c1.2-0.7,2.5-1.1,3.8-1.1c1.3,0,2.7,0.4,3.8,1.1
	c0.2,0.1,0.2,0.3,0.1,0.5c-0.1,0.2-0.3,0.2-0.5,0.1c-1.1-0.7-2.3-1-3.5-1C49.1,98.8,47.9,99.1,46.9,99.8z"/>
<path class="st0" d="M50,98.4c0-0.2,0.2-0.4,0.4-0.4s0.4,0.2,0.4,0.4v11.3c0,0.2-0.2,0.4-0.4,0.4s-0.4-0.2-0.4-0.4V98.4z"/>
<path class="st0" d="M46.3,101.6c0-0.2,0.2-0.4,0.4-0.4s0.4,0.2,0.4,0.4v7.7h6.6v-8.4c0-0.2,0.2-0.4,0.4-0.4c0.2,0,0.4,0.2,0.4,0.4
	v8.8v0c0,0.2-0.2,0.4-0.4,0.4h-7.3h0c-0.2,0-0.4-0.2-0.4-0.4V101.6z"/>
<path class="st0" d="M46.9,119.3c-0.2,0.1-0.4,0.1-0.5-0.1c-0.1-0.2-0.1-0.4,0.1-0.5c1.2-0.7,2.5-1.1,3.8-1.1c1.3,0,2.7,0.4,3.8,1.1
	c0.2,0.1,0.2,0.3,0.1,0.5c-0.1,0.2-0.3,0.2-0.5,0.1c-1.1-0.7-2.3-1-3.5-1C49.1,118.3,47.9,118.6,46.9,119.3z"/>
<path class="st0" d="M50,118c0-0.2,0.2-0.4,0.4-0.4s0.4,0.2,0.4,0.4v11.3c0,0.2-0.2,0.4-0.4,0.4s-0.4-0.2-0.4-0.4V118z"/>
<path class="st0" d="M46.3,121.1c0-0.2,0.2-0.4,0.4-0.4s0.4,0.2,0.4,0.4v7.7h6.6v-8.4c0-0.2,0.2-0.4,0.4-0.4c0.2,0,0.4,0.2,0.4,0.4
	v8.8v0c0,0.2-0.2,0.4-0.4,0.4h-7.3h0c-0.2,0-0.4-0.2-0.4-0.4V121.1z"/>
<path class="st0" d="M143.6,99.8c-0.2,0.1-0.4,0.1-0.5-0.1s-0.1-0.4,0.1-0.5c1.2-0.7,2.5-1.1,3.8-1.1c1.3,0,2.7,0.4,3.8,1.1
	c0.2,0.1,0.2,0.3,0.1,0.5s-0.3,0.2-0.5,0.1c-1.1-0.7-2.3-1-3.5-1C145.9,98.8,144.7,99.1,143.6,99.8z"/>
<path class="st0" d="M146.7,98.4c0-0.2,0.2-0.4,0.4-0.4s0.4,0.2,0.4,0.4v11.3c0,0.2-0.2,0.4-0.4,0.4s-0.4-0.2-0.4-0.4V98.4z"/>
<path class="st0" d="M143.1,101.6c0-0.2,0.2-0.4,0.4-0.4s0.4,0.2,0.4,0.4v7.7h6.6v-8.4c0-0.2,0.2-0.4,0.4-0.4s0.4,0.2,0.4,0.4v8.8v0
	c0,0.2-0.2,0.4-0.4,0.4h-7.3h0c-0.2,0-0.4-0.2-0.4-0.4V101.6z"/>
<path class="st0" d="M91,90.6c0-0.2,0.2-0.4,0.4-0.4c0.2,0,0.4,0.2,0.4,0.4v48.3c0,0.2-0.2,0.4-0.4,0.4c-0.2,0-0.4-0.2-0.4-0.4V90.6
	z"/>
<path class="st0" d="M210.1,99.8c-0.2,0.1-0.4,0.1-0.5-0.1s-0.1-0.4,0.1-0.5c1.2-0.7,2.5-1.1,3.8-1.1c1.3,0,2.7,0.4,3.8,1.1
	c0.2,0.1,0.2,0.3,0.1,0.5c-0.1,0.2-0.3,0.2-0.5,0.1c-1.1-0.7-2.3-1-3.5-1C212.4,98.8,211.2,99.1,210.1,99.8z"/>
<path class="st0" d="M213.2,98.4c0-0.2,0.2-0.4,0.4-0.4s0.4,0.2,0.4,0.4v11.3c0,0.2-0.2,0.4-0.4,0.4s-0.4-0.2-0.4-0.4V98.4z"/>
<path class="st0" d="M209.6,101.6c0-0.2,0.2-0.4,0.4-0.4s0.4,0.2,0.4,0.4v7.7h6.6v-8.4c0-0.2,0.2-0.4,0.4-0.4c0.2,0,0.4,0.2,0.4,0.4
	v8.8v0c0,0.2-0.2,0.4-0.4,0.4h-7.3h0c-0.2,0-0.4-0.2-0.4-0.4V101.6z"/>
<path class="st0" d="M210.1,119.3c-0.2,0.1-0.4,0.1-0.5-0.1c-0.1-0.2-0.1-0.4,0.1-0.5c1.2-0.7,2.5-1.1,3.8-1.1
	c1.3,0,2.7,0.4,3.8,1.1c0.2,0.1,0.2,0.3,0.1,0.5c-0.1,0.2-0.3,0.2-0.5,0.1c-1.1-0.7-2.3-1-3.5-1S211.2,118.6,210.1,119.3z"/>
<path class="st0" d="M213.2,118c0-0.2,0.2-0.4,0.4-0.4s0.4,0.2,0.4,0.4v11.3c0,0.2-0.2,0.4-0.4,0.4s-0.4-0.2-0.4-0.4V118z"/>
<path class="st0" d="M209.6,121.1c0-0.2,0.2-0.4,0.4-0.4s0.4,0.2,0.4,0.4v7.7h6.6v-8.4c0-0.2,0.2-0.4,0.4-0.4c0.2,0,0.4,0.2,0.4,0.4
	v8.8v0c0,0.2-0.2,0.4-0.4,0.4h-7.3h0c-0.2,0-0.4-0.2-0.4-0.4V121.1z"/>
<path class="st0" d="M194.5,99.8c-0.2,0.1-0.4,0.1-0.5-0.1c-0.1-0.2-0.1-0.4,0.1-0.5c1.2-0.7,2.5-1.1,3.8-1.1c1.3,0,2.7,0.4,3.8,1.1
	c0.2,0.1,0.2,0.3,0.1,0.5c-0.1,0.2-0.3,0.2-0.5,0.1c-1.1-0.7-2.3-1-3.5-1C196.8,98.8,195.6,99.1,194.5,99.8z"/>
<path class="st0" d="M197.6,98.4c0-0.2,0.2-0.4,0.4-0.4s0.4,0.2,0.4,0.4v11.3c0,0.2-0.2,0.4-0.4,0.4s-0.4-0.2-0.4-0.4V98.4z"/>
<path class="st0" d="M194,101.6c0-0.2,0.2-0.4,0.4-0.4s0.4,0.2,0.4,0.4v7.7h6.6v-8.4c0-0.2,0.2-0.4,0.4-0.4c0.2,0,0.4,0.2,0.4,0.4
	v8.8v0c0,0.2-0.2,0.4-0.4,0.4h-7.3h0c-0.2,0-0.4-0.2-0.4-0.4V101.6z"/>
<path class="st0" d="M194.5,119.3c-0.2,0.1-0.4,0.1-0.5-0.1c-0.1-0.2-0.1-0.4,0.1-0.5c1.2-0.7,2.5-1.1,3.8-1.1
	c1.3,0,2.7,0.4,3.8,1.1c0.2,0.1,0.2,0.3,0.1,0.5c-0.1,0.2-0.3,0.2-0.5,0.1c-1.1-0.7-2.3-1-3.5-1
	C196.8,118.3,195.6,118.6,194.5,119.3z"/>
<path class="st0" d="M197.6,118c0-0.2,0.2-0.4,0.4-0.4s0.4,0.2,0.4,0.4v11.3c0,0.2-0.2,0.4-0.4,0.4s-0.4-0.2-0.4-0.4V118z"/>
<path class="st0" d="M194,121.1c0-0.2,0.2-0.4,0.4-0.4s0.4,0.2,0.4,0.4v7.7h6.6v-8.4c0-0.2,0.2-0.4,0.4-0.4c0.2,0,0.4,0.2,0.4,0.4
	v8.8v0c0,0.2-0.2,0.4-0.4,0.4h-7.3h0c-0.2,0-0.4-0.2-0.4-0.4V121.1z"/>
<path class="st0" d="M178.9,99.8c-0.2,0.1-0.4,0.1-0.5-0.1c-0.1-0.2-0.1-0.4,0.1-0.5c1.2-0.7,2.5-1.1,3.8-1.1c1.3,0,2.7,0.4,3.8,1.1
	c0.2,0.1,0.2,0.3,0.1,0.5c-0.1,0.2-0.3,0.2-0.5,0.1c-1.1-0.7-2.3-1-3.5-1C181.2,98.8,180,99.1,178.9,99.8z"/>
<path class="st0" d="M182.1,98.4c0-0.2,0.2-0.4,0.4-0.4s0.4,0.2,0.4,0.4v11.3c0,0.2-0.2,0.4-0.4,0.4s-0.4-0.2-0.4-0.4V98.4z"/>
<path class="st0" d="M178.4,101.6c0-0.2,0.2-0.4,0.4-0.4c0.2,0,0.4,0.2,0.4,0.4v7.7h6.6v-8.4c0-0.2,0.2-0.4,0.4-0.4
	c0.2,0,0.4,0.2,0.4,0.4v8.8v0c0,0.2-0.2,0.4-0.4,0.4h-7.3h0c-0.2,0-0.4-0.2-0.4-0.4V101.6z"/>
<path class="st0" d="M178.9,119.3c-0.2,0.1-0.4,0.1-0.5-0.1c-0.1-0.2-0.1-0.4,0.1-0.5c1.2-0.7,2.5-1.1,3.8-1.1
	c1.3,0,2.7,0.4,3.8,1.1c0.2,0.1,0.2,0.3,0.1,0.5c-0.1,0.2-0.3,0.2-0.5,0.1c-1.1-0.7-2.3-1-3.5-1C181.2,118.3,180,118.6,178.9,119.3z
	"/>
<path class="st0" d="M182.1,118c0-0.2,0.2-0.4,0.4-0.4s0.4,0.2,0.4,0.4v11.3c0,0.2-0.2,0.4-0.4,0.4s-0.4-0.2-0.4-0.4V118z"/>
<path class="st0" d="M178.4,121.1c0-0.2,0.2-0.4,0.4-0.4c0.2,0,0.4,0.2,0.4,0.4v7.7h6.6v-8.4c0-0.2,0.2-0.4,0.4-0.4
	c0.2,0,0.4,0.2,0.4,0.4v8.8v0c0,0.2-0.2,0.4-0.4,0.4h-7.3h0c-0.2,0-0.4-0.2-0.4-0.4V121.1z"/>
<path class="st0" d="M88.8,139.9c0.2,0,0.4,0.2,0.4,0.4s-0.2,0.4-0.4,0.4H39.1c-0.2,0-0.4-0.2-0.4-0.4s0.2-0.4,0.4-0.4H88.8z"/>
<path class="st0" d="M224.9,139.9c0.2,0,0.4,0.2,0.4,0.4s-0.2,0.4-0.4,0.4h-49.7c-0.2,0-0.4-0.2-0.4-0.4s0.2-0.4,0.4-0.4H224.9z"/>
<path class="st0" d="M91.4,136.2c-0.2,0-0.4-0.2-0.4-0.4s0.2-0.4,0.4-0.4h5.4c0.2,0,0.4,0.2,0.4,0.4s-0.2,0.4-0.4,0.4H91.4
	L91.4,136.2z M106.7,136.2c-0.2,0-0.4-0.2-0.4-0.4s0.2-0.4,0.4-0.4H127c0.2,0,0.4,0.2,0.4,0.4s-0.2,0.4-0.4,0.4H106.7L106.7,136.2z
	 M136.9,136.2c-0.2,0-0.4-0.2-0.4-0.4s0.2-0.4,0.4-0.4h20.3c0.2,0,0.4,0.2,0.4,0.4s-0.2,0.4-0.4,0.4H136.9L136.9,136.2z
	 M167.2,136.2c-0.2,0-0.4-0.2-0.4-0.4s0.2-0.4,0.4-0.4h5.4c0.2,0,0.4,0.2,0.4,0.4s-0.2,0.4-0.4,0.4H167.2z"/>
<path class="st0" d="M88.8,138.6L88.8,138.6h86.4c0.2,0,0.4,0.2,0.4,0.4v0v2.8c0,0.2-0.2,0.4-0.4,0.4h0H88.8c-0.2,0-0.4-0.2-0.4-0.4
	v0v-2.8C88.4,138.7,88.6,138.6,88.8,138.6L88.8,138.6z M174.8,139.3H89.1v2.1h85.7V139.3z"/>
<path class="st0" d="M45.2,87.5c0-0.2,0.2-0.4,0.4-0.4s0.4,0.2,0.4,0.4v3.1c0,0.2-0.2,0.4-0.4,0.4s-0.4-0.2-0.4-0.4V87.5L45.2,87.5z
	 M38.7,87.5c0-0.2,0.2-0.4,0.4-0.4s0.4,0.2,0.4,0.4v3.1c0,0.2-0.2,0.4-0.4,0.4s-0.4-0.2-0.4-0.4V87.5L38.7,87.5z M91,87.5
	c0-0.2,0.2-0.4,0.4-0.4c0.2,0,0.4,0.2,0.4,0.4v3.1c0,0.2-0.2,0.4-0.4,0.4c-0.2,0-0.4-0.2-0.4-0.4V87.5L91,87.5z M84.5,87.5
	c0-0.2,0.2-0.4,0.4-0.4s0.4,0.2,0.4,0.4v3.1c0,0.2-0.2,0.4-0.4,0.4s-0.4-0.2-0.4-0.4V87.5L84.5,87.5z M77.9,87.5
	c0-0.2,0.2-0.4,0.4-0.4c0.2,0,0.4,0.2,0.4,0.4v3.1c0,0.2-0.2,0.4-0.4,0.4c-0.2,0-0.4-0.2-0.4-0.4V87.5L77.9,87.5z M71.4,87.5
	c0-0.2,0.2-0.4,0.4-0.4c0.2,0,0.4,0.2,0.4,0.4v3.1c0,0.2-0.2,0.4-0.4,0.4c-0.2,0-0.4-0.2-0.4-0.4V87.5L71.4,87.5z M64.9,87.5
	c0-0.2,0.2-0.4,0.4-0.4s0.4,0.2,0.4,0.4v3.1c0,0.2-0.2,0.4-0.4,0.4s-0.4-0.2-0.4-0.4V87.5L64.9,87.5z M58.3,87.5
	c0-0.2,0.2-0.4,0.4-0.4s0.4,0.2,0.4,0.4v3.1c0,0.2-0.2,0.4-0.4,0.4s-0.4-0.2-0.4-0.4V87.5L58.3,87.5z M51.8,87.5
	c0-0.2,0.2-0.4,0.4-0.4s0.4,0.2,0.4,0.4v3.1c0,0.2-0.2,0.4-0.4,0.4s-0.4-0.2-0.4-0.4V87.5z"/>
<path class="st0" d="M178.7,87.5c0-0.2,0.2-0.4,0.4-0.4s0.4,0.2,0.4,0.4v3.1c0,0.2-0.2,0.4-0.4,0.4s-0.4-0.2-0.4-0.4V87.5
	L178.7,87.5z M172.2,87.5c0-0.2,0.2-0.4,0.4-0.4c0.2,0,0.4,0.2,0.4,0.4v3.1c0,0.2-0.2,0.4-0.4,0.4c-0.2,0-0.4-0.2-0.4-0.4V87.5
	L172.2,87.5z M224.5,87.5c0-0.2,0.2-0.4,0.4-0.4s0.4,0.2,0.4,0.4v3.1c0,0.2-0.2,0.4-0.4,0.4s-0.4-0.2-0.4-0.4V87.5L224.5,87.5z
	 M218,87.5c0-0.2,0.2-0.4,0.4-0.4s0.4,0.2,0.4,0.4v3.1c0,0.2-0.2,0.4-0.4,0.4s-0.4-0.2-0.4-0.4V87.5L218,87.5z M211.5,87.5
	c0-0.2,0.2-0.4,0.4-0.4s0.4,0.2,0.4,0.4v3.1c0,0.2-0.2,0.4-0.4,0.4s-0.4-0.2-0.4-0.4V87.5L211.5,87.5z M204.9,87.5
	c0-0.2,0.2-0.4,0.4-0.4c0.2,0,0.4,0.2,0.4,0.4v3.1c0,0.2-0.2,0.4-0.4,0.4c-0.2,0-0.4-0.2-0.4-0.4V87.5L204.9,87.5z M198.4,87.5
	c0-0.2,0.2-0.4,0.4-0.4c0.2,0,0.4,0.2,0.4,0.4v3.1c0,0.2-0.2,0.4-0.4,0.4c-0.2,0-0.4-0.2-0.4-0.4V87.5L198.4,87.5z M191.8,87.5
	c0-0.2,0.2-0.4,0.4-0.4s0.4,0.2,0.4,0.4v3.1c0,0.2-0.2,0.4-0.4,0.4s-0.4-0.2-0.4-0.4V87.5L191.8,87.5z M185.3,87.5
	c0-0.2,0.2-0.4,0.4-0.4s0.4,0.2,0.4,0.4v3.1c0,0.2-0.2,0.4-0.4,0.4s-0.4-0.2-0.4-0.4V87.5z"/>
<path class="st2" d="M74.6,83.2H47.7c-0.2,0-0.4-0.2-0.4-0.4l0,0c0-1.1,0.2-2.2,0.7-3.2c0.5-1,1.2-1.9,2.1-2.6
	c0.9-0.7,1.9-1.2,3-1.4c0.9-0.2,1.9-0.2,2.9,0c0-0.8,0.2-1.7,0.6-2.4c0.5-0.9,1.1-1.6,2-2.1c0.9-0.5,1.8-0.8,2.8-0.8
	c1,0,2,0.2,2.8,0.7c0.9,0.5,1.6,1.2,2.1,2.1c0.4,0.7,0.7,1.6,0.7,2.4c0.9-0.1,1.9,0,2.7,0.2c1,0.3,2,0.8,2.8,1.5
	c0.8,0.7,1.4,1.6,1.8,2.6c0.4,1,0.6,2,0.6,3.1C75,83.1,74.8,83.2,74.6,83.2L74.6,83.2L74.6,83.2z M48,82.5h26.2
	c0-0.8-0.2-1.7-0.5-2.4c-0.4-0.9-0.9-1.7-1.7-2.3c-0.7-0.6-1.6-1.1-2.5-1.4c-0.9-0.3-1.9-0.3-2.8-0.2c0,0,0,0-0.1,0
	c-0.2,0-0.4-0.2-0.4-0.4c0-0.9-0.2-1.7-0.6-2.5c-0.4-0.7-1-1.4-1.8-1.8c-0.8-0.4-1.6-0.6-2.5-0.6c-0.9,0-1.7,0.3-2.4,0.7
	c-0.8,0.5-1.3,1.1-1.7,1.9c-0.4,0.8-0.6,1.6-0.5,2.5h0c0,0,0,0.1,0,0.1c0,0.2-0.2,0.3-0.4,0.3c-1-0.3-2-0.3-3-0.1
	c-1,0.2-1.9,0.6-2.7,1.3c-0.8,0.6-1.4,1.4-1.9,2.3C48.3,80.7,48.1,81.6,48,82.5z"/>
<path class="st2" d="M111.6,67.2H94.1c-0.2,0-0.4-0.2-0.4-0.4l0,0c0-0.7,0.2-1.5,0.5-2.1c0.3-0.7,0.8-1.3,1.4-1.7l0,0
	c0.6-0.5,1.3-0.8,2-0.9c0.6-0.1,1.2-0.1,1.8,0c0-0.5,0.2-1,0.4-1.5c0.3-0.6,0.8-1.1,1.3-1.4c0.6-0.4,1.2-0.5,1.9-0.6
	c0.7,0,1.3,0.1,1.9,0.5c0.6,0.3,1.1,0.8,1.4,1.4c0.3,0.5,0.4,1,0.5,1.5c0.6,0,1.2,0,1.7,0.2c0.7,0.2,1.3,0.5,1.8,1
	c0.5,0.5,1,1.1,1.2,1.7c0.3,0.6,0.4,1.3,0.4,2.1C111.9,67.1,111.8,67.2,111.6,67.2L111.6,67.2L111.6,67.2z M94.4,66.5h16.8
	c0-0.5-0.1-1-0.3-1.4c-0.2-0.5-0.6-1-1-1.4c-0.5-0.4-1-0.7-1.6-0.9c-0.6-0.2-1.2-0.2-1.8-0.1c0,0,0,0-0.1,0c-0.2,0-0.4-0.2-0.4-0.4
	c0-0.5-0.1-1.1-0.4-1.5c-0.3-0.5-0.7-0.9-1.1-1.1c-0.5-0.3-1-0.4-1.5-0.4c-0.5,0-1.1,0.2-1.5,0.4c-0.5,0.3-0.8,0.7-1.1,1.2
	c-0.2,0.5-0.4,1-0.3,1.6h0c0,0,0,0.1,0,0.1c0,0.2-0.2,0.3-0.4,0.3c-0.6-0.2-1.3-0.2-1.9,0c-0.6,0.1-1.2,0.4-1.7,0.8l0,0l0,0
	c-0.5,0.4-0.9,0.9-1.2,1.5C94.6,65.5,94.5,66,94.4,66.5z"/>
<path class="st2" d="M218.2,83.8h-17.5c-0.2,0-0.4-0.2-0.4-0.4l0,0c0-0.7,0.2-1.5,0.5-2.1c0.3-0.7,0.8-1.3,1.4-1.7l0,0
	c0.6-0.5,1.3-0.8,2-0.9c0.6-0.1,1.2-0.1,1.8,0c0-0.5,0.2-1,0.4-1.5l0,0l0,0c0.3-0.6,0.8-1.1,1.3-1.4c0.6-0.4,1.2-0.5,1.9-0.6
	c0.7,0,1.3,0.1,1.9,0.5c0.6,0.3,1.1,0.8,1.4,1.4c0.3,0.5,0.4,1,0.5,1.5c0.6,0,1.2,0,1.7,0.2c0.7,0.2,1.3,0.5,1.8,1
	c0.5,0.5,1,1.1,1.2,1.7c0.3,0.6,0.4,1.3,0.4,2.1C218.5,83.6,218.4,83.8,218.2,83.8L218.2,83.8L218.2,83.8z M201,83.1h16.8
	c0-0.5-0.1-1-0.3-1.4c-0.2-0.5-0.6-1-1-1.4c-0.5-0.4-1-0.7-1.6-0.9c-0.6-0.2-1.2-0.2-1.8-0.1c0,0,0,0-0.1,0c-0.2,0-0.4-0.2-0.4-0.4
	c0-0.5-0.1-1.1-0.4-1.5c-0.3-0.5-0.6-0.9-1.1-1.1c-0.5-0.3-1-0.4-1.5-0.4c-0.5,0-1.1,0.2-1.5,0.4c-0.5,0.3-0.8,0.7-1.1,1.2l0,0
	c-0.2,0.5-0.4,1-0.3,1.6h0c0,0,0,0.1,0,0.1c0,0.2-0.2,0.3-0.4,0.3c-0.6-0.2-1.3-0.2-1.9,0c-0.6,0.1-1.2,0.4-1.7,0.8l0,0
	c-0.5,0.4-0.9,0.9-1.2,1.5C201.2,82,201.1,82.6,201,83.1z"/>
<path class="st0" d="M93,85.3c-0.2,0.1-0.4,0-0.5-0.2c-0.1-0.2,0-0.4,0.2-0.5l38.8-19.9c0.1-0.1,0.2-0.1,0.3,0v0l38.8,19.9
	c0.2,0.1,0.2,0.3,0.2,0.5c-0.1,0.2-0.3,0.2-0.5,0.2l-38.6-19.9L93,85.3z"/>
<path class="st0" d="M46.7,103c-0.2,0-0.4-0.2-0.4-0.4s0.2-0.4,0.4-0.4H54c0.2,0,0.4,0.2,0.4,0.4S54.2,103,54,103H46.7z"/>
<path class="st0" d="M62.3,103c-0.2,0-0.4-0.2-0.4-0.4s0.2-0.4,0.4-0.4h7.3c0.2,0,0.4,0.2,0.4,0.4s-0.2,0.4-0.4,0.4H62.3z"/>
<path class="st0" d="M77.9,103c-0.2,0-0.4-0.2-0.4-0.4s0.2-0.4,0.4-0.4h7.3c0.2,0,0.4,0.2,0.4,0.4s-0.2,0.4-0.4,0.4H77.9z"/>
<path class="st0" d="M113.2,103c-0.2,0-0.4-0.2-0.4-0.4s0.2-0.4,0.4-0.4h7.3c0.2,0,0.4,0.2,0.4,0.4s-0.2,0.4-0.4,0.4H113.2z"/>
<path class="st0" d="M143.4,103c-0.2,0-0.4-0.2-0.4-0.4s0.2-0.4,0.4-0.4h7.3c0.2,0,0.4,0.2,0.4,0.4s-0.2,0.4-0.4,0.4H143.4z"/>
<path class="st0" d="M178.8,103c-0.2,0-0.4-0.2-0.4-0.4s0.2-0.4,0.4-0.4h7.3c0.2,0,0.4,0.2,0.4,0.4s-0.2,0.4-0.4,0.4H178.8z"/>
<path class="st0" d="M194.3,103c-0.2,0-0.4-0.2-0.4-0.4s0.2-0.4,0.4-0.4h7.3c0.2,0,0.4,0.2,0.4,0.4s-0.2,0.4-0.4,0.4H194.3z"/>
<path class="st0" d="M209.9,103c-0.2,0-0.4-0.2-0.4-0.4s0.2-0.4,0.4-0.4h7.3c0.2,0,0.4,0.2,0.4,0.4s-0.2,0.4-0.4,0.4H209.9z"/>
<path class="st0" d="M46.7,122.5c-0.2,0-0.4-0.2-0.4-0.4s0.2-0.4,0.4-0.4H54c0.2,0,0.4,0.2,0.4,0.4s-0.2,0.4-0.4,0.4H46.7z"/>
<path class="st0" d="M62.3,122.5c-0.2,0-0.4-0.2-0.4-0.4s0.2-0.4,0.4-0.4h7.3c0.2,0,0.4,0.2,0.4,0.4s-0.2,0.4-0.4,0.4H62.3z"/>
<path class="st0" d="M77.9,122.5c-0.2,0-0.4-0.2-0.4-0.4s0.2-0.4,0.4-0.4h7.3c0.2,0,0.4,0.2,0.4,0.4s-0.2,0.4-0.4,0.4H77.9z"/>
<path class="st0" d="M178.8,122.5c-0.2,0-0.4-0.2-0.4-0.4s0.2-0.4,0.4-0.4h7.3c0.2,0,0.4,0.2,0.4,0.4s-0.2,0.4-0.4,0.4H178.8z"/>
<path class="st0" d="M194.3,122.5c-0.2,0-0.4-0.2-0.4-0.4s0.2-0.4,0.4-0.4h7.3c0.2,0,0.4,0.2,0.4,0.4s-0.2,0.4-0.4,0.4H194.3z"/>
<path class="st0" d="M209.9,122.5c-0.2,0-0.4-0.2-0.4-0.4s0.2-0.4,0.4-0.4h7.3c0.2,0,0.4,0.2,0.4,0.4s-0.2,0.4-0.4,0.4H209.9z"/>
<path class="st0" d="M72.5,156.7c-0.3,0-0.5,0.4-0.3,0.6c0.1,0.1,0.1,0.1,0.3,0.1h4.3c0.3,0,0.5-0.4,0.3-0.6
	c-0.1-0.1-0.1-0.1-0.3-0.1H72.5L72.5,156.7z M191.4,157.5c0.3,0,0.5-0.4,0.3-0.6c-0.1-0.1-0.1-0.1-0.3-0.1h-2.3
	c-0.3,0-0.5,0.4-0.3,0.6c0.1,0.1,0.1,0.1,0.3,0.1H191.4L191.4,157.5z M185.5,157.5c0.3,0,0.5-0.4,0.3-0.6c-0.1-0.1-0.1-0.1-0.3-0.1
	h-28.1c-0.3,0-0.5,0.4-0.3,0.6c0.1,0.1,0.1,0.1,0.3,0.1H185.5L185.5,157.5z M154.6,157.5c0.3,0,0.5-0.4,0.3-0.6
	c-0.1-0.1-0.1-0.1-0.3-0.1h-4.3c-0.3,0-0.5,0.4-0.3,0.6c0.1,0.1,0.1,0.1,0.3,0.1H154.6L154.6,157.5z M146.7,157.5
	c0.3,0,0.5-0.4,0.3-0.6c-0.1-0.1-0.1-0.1-0.3-0.1h-28.1c-0.3,0-0.5,0.4-0.3,0.6c0.1,0.1,0.1,0.1,0.3,0.1H146.7L146.7,157.5z
	 M115.7,157.5c0.3,0,0.5-0.4,0.3-0.6c-0.1-0.1-0.1-0.1-0.3-0.1h-4.3c-0.3,0-0.5,0.4-0.3,0.6c0.1,0.1,0.1,0.1,0.3,0.1H115.7
	L115.7,157.5z M107.8,157.5c0.3,0,0.5-0.4,0.3-0.6c-0.1-0.1-0.1-0.1-0.3-0.1H79.7c-0.3,0-0.5,0.4-0.3,0.6c0.1,0.1,0.1,0.1,0.3,0.1
	H107.8z"/>
<path class="st0" d="M111.9,117.6L111.9,117.6h9.9c0.2,0,0.4,0.2,0.4,0.4v0v17.9c0,0.2-0.2,0.4-0.4,0.4h0h-9.9
	c-0.2,0-0.4-0.2-0.4-0.4v0V118C111.6,117.8,111.7,117.6,111.9,117.6L111.9,117.6z M121.5,118.3h-9.2v17.2h9.2V118.3z"/>
<path class="st0" d="M116.5,118c0-0.2,0.2-0.4,0.4-0.4s0.4,0.2,0.4,0.4v17.9c0,0.2-0.2,0.4-0.4,0.4s-0.4-0.2-0.4-0.4V118z"/>
<path class="st0" d="M115.6,128.7c-0.2,0-0.4-0.2-0.4-0.4s0.2-0.4,0.4-0.4h2.5c0.2,0,0.4,0.2,0.4,0.4s-0.2,0.4-0.4,0.4H115.6z"/>
<path class="st0" d="M111.2,117.6h11.3v-0.5h-11.3V117.6L111.2,117.6z M122.9,118.3h-12h0c-0.2,0-0.4-0.2-0.4-0.4v-1.2v0
	c0-0.2,0.2-0.4,0.4-0.4h12h0c0.2,0,0.4,0.2,0.4,0.4v1.2v0C123.2,118.2,123.1,118.3,122.9,118.3z"/>
<path class="st0" d="M142.1,117.6L142.1,117.6h9.9c0.2,0,0.4,0.2,0.4,0.4v0v17.9c0,0.2-0.2,0.4-0.4,0.4h0h-9.9
	c-0.2,0-0.4-0.2-0.4-0.4v0V118C141.8,117.8,141.9,117.6,142.1,117.6L142.1,117.6z M151.7,118.3h-9.2v17.2h9.2V118.3z"/>
<path class="st0" d="M146.7,118c0-0.2,0.2-0.4,0.4-0.4s0.4,0.2,0.4,0.4v17.9c0,0.2-0.2,0.4-0.4,0.4s-0.4-0.2-0.4-0.4V118z"/>
<path class="st0" d="M145.8,128.7c-0.2,0-0.4-0.2-0.4-0.4s0.2-0.4,0.4-0.4h2.5c0.2,0,0.4,0.2,0.4,0.4s-0.2,0.4-0.4,0.4H145.8z"/>
<path class="st0" d="M141.4,117.6h11.3v-0.5h-11.3V117.6L141.4,117.6z M153.1,118.3h-12h0c-0.2,0-0.4-0.2-0.4-0.4v-1.2v0
	c0-0.2,0.2-0.4,0.4-0.4h12h0c0.2,0,0.4,0.2,0.4,0.4v1.2v0C153.5,118.2,153.3,118.3,153.1,118.3z"/>
<path class="st0" d="M114.8,78c-0.2,0-0.4-0.2-0.4-0.4s0.2-0.4,0.4-0.4h33c0.2,0,0.4,0.2,0.4,0.4S148,78,147.8,78H114.8z"/>
</svg>
