<?xml version="1.0" encoding="utf-8"?>
<!-- Generator: Adobe Illustrator 19.2.1, SVG Export Plug-In . SVG Version: 6.00 Build 0)  -->
<svg version="1.1" id="OBJEKTS" xmlns="http://www.w3.org/2000/svg" xmlns:xlink="http://www.w3.org/1999/xlink" x="0px" y="0px"
	 viewBox="0 0 500 500" style="enable-background:new 0 0 500 500;" xml:space="preserve">
<style type="text/css">
	.st0{opacity:9.000000e-02;fill:#1C2229;}
	.st1{opacity:0.45;}
	.st2{fill:url(#SVGID_1_);}
	.st3{opacity:0.7;}
	.st4{fill:url(#SVGID_2_);}
	.st5{fill:url(#SVGID_3_);}
	.st6{fill:#0D2756;}
	.st7{fill:#011838;}
	.st8{fill:#FFFFFF;}
	.st9{fill:#FFC370;}
	.st10{fill:none;stroke:#1959A8;stroke-width:3;stroke-miterlimit:10;}
	.st11{fill:#79B4C9;}
	.st12{fill:#FF9191;}
	.st13{fill:none;stroke:#79B4C9;stroke-width:2;stroke-miterlimit:10;}
	.st14{fill:#FFD939;}
	.st15{fill:#AB56D8;}
	.st16{fill:#8736AC;}
	.st17{opacity:0.58;fill:#8736AC;}
	.st18{fill:#025AB2;}
	.st19{fill:none;stroke:#CC4949;stroke-width:4;stroke-miterlimit:10;}
	.st20{fill:none;stroke:#C0C8D1;stroke-width:2;stroke-miterlimit:10;}
	.st21{opacity:0.35;fill:#C0C8D1;}
	.st22{fill:none;stroke:#CC4949;stroke-width:5;stroke-miterlimit:10;}
	.st23{fill:#CC4949;}
	.st24{fill:#FCCD00;}
	.st25{fill:none;stroke:#404D5C;stroke-width:2;stroke-miterlimit:10;}
	.st26{fill:#FF983B;}
	.st27{fill:#1974A8;}
	.st28{fill:url(#SVGID_4_);}
	.st29{fill:#FFFFF6;}
	.st30{fill:#020183;}
	.st31{fill:#DE9C40;}
	.st32{fill:#E0AC9B;}
	.st33{fill:#FFB743;}
	.st34{fill:#FF8B2C;}
	.st35{fill:none;stroke:#000000;stroke-width:0.5;stroke-miterlimit:10;}
	.st36{fill:#4D8BA1;}
	.st37{fill:#404D5C;}
	.st38{fill:#CC9281;}
	.st39{fill:#13285E;}
	.st40{fill:#C9CDD1;}
	.st41{fill:#078AD3;}
	.st42{fill:#C73EDB;}
	.st43{fill:#1392E8;}
	.st44{fill:#FBFFFA;}
	.st45{fill:#0A0A0A;}
	.st46{fill:#AB2C2C;}
	.st47{fill:#110809;}
</style>
<g>
	<path class="st0" d="M363.6,357.6H112.8c-1.7,0-3-1.3-3-3v-4.8c0-1.7,1.3-3,3-3h250.8c1.7,0,3,1.3,3,3v4.8
		C366.6,356.3,365.3,357.6,363.6,357.6z"/>
	<g>
		<path class="st0" d="M254.2,364.1c-0.2,1-1.3,2-2.9,2.4c-6.4,1.5-12.5,0.9-19,0.9c-10.9,0-21.8,0-32.7,0
			c-16.7,0-33.8,1.1-50.4-0.1c-1.7-0.1-3.5-0.8-4.3-2.2c-0.2-0.3-0.3-0.6-0.3-0.9c0-0.8,0.7-1.4,1.4-1.7c3.3-1.8,7-0.9,10.6-0.9
			c4.2,0,8.5,0,12.7,0c8.5,0,17,0,25.5,0c10.3,0,20.6-0.2,30.8-0.3c5.2,0,10.5-0.1,15.7,0c3.4,0,7.6-0.8,10.8,0.3
			C253.8,362.1,254.4,363.2,254.2,364.1z"/>
		<g class="st1">
			<linearGradient id="SVGID_1_" gradientUnits="userSpaceOnUse" x1="303.7746" y1="47.1163" x2="256.1377" y2="121.403">
				<stop  offset="7.000000e-08" style="stop-color:#00548C"/>
				<stop  offset="0.4885" style="stop-color:#4892BA;stop-opacity:0.6092"/>
				<stop  offset="1" style="stop-color:#90CFE8;stop-opacity:0.2"/>
			</linearGradient>
			<path class="st2" d="M275.3,121.7c-16.7,0-30.2-13.5-30.2-30.2c0-16.7,13.5-30.2,30.2-30.2c16.7,0,30.2,13.5,30.2,30.2
				C305.6,108.1,292,121.7,275.3,121.7z"/>
		</g>
		<g class="st3">
			<linearGradient id="SVGID_2_" gradientUnits="userSpaceOnUse" x1="380.2342" y1="65.1729" x2="336.8841" y2="151.2011">
				<stop  offset="7.000000e-08" style="stop-color:#00548C"/>
				<stop  offset="0.4885" style="stop-color:#4892BA;stop-opacity:0.6092"/>
				<stop  offset="1" style="stop-color:#90CFE8;stop-opacity:0.2"/>
			</linearGradient>
			<path class="st4" d="M375.6,141.1c-2.8-0.5-4.6-3.2-4.1-5.9c0.5-2.8,3.2-4.6,5.9-4.1c0.2,0,0.3,0.1,0.5,0.1c0-2-0.1-4-0.5-5.9
				c-0.2,0.1-0.3,0.2-0.5,0.2c-2.6,0.9-5.5-0.4-6.5-3.1c-0.9-2.6,0.4-5.5,3.1-6.5c0.2-0.1,0.4-0.1,0.5-0.1c-1-1.7-2.1-3.4-3.4-4.9
				c-0.1,0.2-0.2,0.3-0.3,0.5c-1.8,2.1-5,2.4-7.2,0.6c-2.1-1.8-2.4-5-0.6-7.2c0.1-0.2,0.3-0.3,0.4-0.4c-1.7-1-3.5-1.9-5.4-2.6
				c0,0.2,0,0.4-0.1,0.7c-0.5,2.8-3.2,4.6-5.9,4.1c-2.8-0.5-4.6-3.2-4.1-5.9c0-0.2,0.1-0.4,0.2-0.7c-2.1,0-4.1,0.1-6.1,0.5
				c0.1,0.2,0.2,0.4,0.3,0.7c0.9,2.6-0.4,5.5-3.1,6.5c-2.6,0.9-5.5-0.4-6.5-3.1c-0.1-0.2-0.1-0.5-0.2-0.7c-1.8,1-3.5,2.1-5,3.5
				c0.2,0.1,0.5,0.3,0.7,0.5c2.1,1.8,2.4,5,0.6,7.2c-1.8,2.1-5,2.4-7.2,0.6c-0.2-0.2-0.4-0.4-0.6-0.6c-1,1.7-1.9,3.6-2.6,5.6
				c0.3,0,0.6,0,0.8,0.1c2.8,0.5,4.6,3.2,4.1,5.9c-0.5,2.8-3.2,4.6-5.9,4.1c-0.3,0-0.5-0.1-0.8-0.2c0,2.1,0.1,4.1,0.5,6.1
				c0.2-0.1,0.5-0.3,0.8-0.4c2.6-0.9,5.5,0.4,6.5,3.1c0.9,2.6-0.4,5.5-3.1,6.5c-0.2,0.1-0.5,0.1-0.8,0.2c1,1.8,2.2,3.5,3.5,5
				c0.1-0.2,0.3-0.4,0.4-0.6c1.8-2.1,5-2.4,7.2-0.6c2.1,1.8,2.4,5,0.6,7.2c-0.2,0.2-0.3,0.3-0.5,0.5c1.7,1,3.6,1.9,5.5,2.6
				c0-0.2,0-0.5,0.1-0.7c0.5-2.8,3.2-4.6,5.9-4.1c2.8,0.5,4.6,3.2,4.1,5.9c0,0.2-0.1,0.4-0.2,0.6c2,0,4-0.1,6-0.5
				c-0.1-0.2-0.2-0.4-0.3-0.6c-0.9-2.6,0.4-5.5,3.1-6.5c2.6-0.9,5.5,0.4,6.5,3.1c0.1,0.2,0.1,0.4,0.1,0.6c1.7-1,3.4-2.1,4.9-3.4
				c-0.2-0.1-0.3-0.2-0.5-0.3c-2.1-1.8-2.4-5-0.6-7.2c1.8-2.1,5-2.4,7.2-0.6c0.1,0.1,0.2,0.3,0.4,0.4c1-1.7,1.9-3.5,2.5-5.4
				C376,141.2,375.8,141.2,375.6,141.1z"/>
		</g>
		<g class="st3">
			
				<linearGradient id="SVGID_3_" gradientUnits="userSpaceOnUse" x1="119.5226" y1="140.4153" x2="90.3682" y2="198.2722" gradientTransform="matrix(1.320000e-02 -0.9999 0.9999 1.320000e-02 -84.6601 277.5922)">
				<stop  offset="7.000000e-08" style="stop-color:#00548C"/>
				<stop  offset="0.4885" style="stop-color:#4892BA;stop-opacity:0.6092"/>
				<stop  offset="1" style="stop-color:#90CFE8;stop-opacity:0.2"/>
			</linearGradient>
			<path class="st5" d="M121.5,186.8c-2.2,11.2-13.1,18.5-24.4,16.3c-11.2-2.2-18.5-13.1-16.3-24.4c2.2-11.2,13.1-18.5,24.4-16.3
				C116.4,164.7,123.7,175.6,121.5,186.8z"/>
		</g>
		<g>
			<g>
				<path class="st6" d="M331.3,224.2H96.3V87.8c0-2.8,2.3-5.1,5.1-5.1h224.9c2.8,0,5.1,2.3,5.1,5.1V224.2z"/>
				<path class="st7" d="M349.4,229.6H78.2c-0.8,0-1.5-0.7-1.5-1.5v-4.3c0-0.8,0.7-1.5,1.5-1.5h271.2c0.8,0,1.5,0.7,1.5,1.5v4.3
					C350.9,228.9,350.3,229.6,349.4,229.6z"/>
				<path class="st8" d="M326.4,216.2H101.2V92.7c0-2.8,2.3-5.1,5.1-5.1h215.1c2.8,0,5.1,2.3,5.1,5.1V216.2z"/>
			</g>
			<g>
				<circle class="st9" cx="135.3" cy="150.4" r="12.5"/>
				<polyline class="st10" points="125.2,149 135.1,157.8 149.7,137.9 				"/>
			</g>
			<g>
				<rect x="163.6" y="142.4" class="st11" width="88.4" height="5.3"/>
				<rect x="163.6" y="153.1" class="st11" width="51.1" height="5.3"/>
			</g>
			<g>
				<circle class="st12" cx="135.3" cy="186.6" r="12.5"/>
				<polyline class="st10" points="125.2,185.2 135.1,194 149.7,174.1 				"/>
			</g>
			<g>
				<rect x="163.6" y="178.7" class="st11" width="88.4" height="5.3"/>
				<rect x="163.6" y="189.3" class="st11" width="51.1" height="5.3"/>
			</g>
			<rect x="271.4" y="141.6" class="st11" width="26.3" height="18.4"/>
			<rect x="271.4" y="178.4" class="st13" width="26.3" height="18.4"/>
		</g>
		<path class="st14" d="M305.8,265.5H71.6c-3.8-10.9-3.8-23.3,0-37.2h234.3V265.5z"/>
		<g>
			<path class="st15" d="M336.2,312.5H102c-6-16.6-5.6-32.6,0-48h234.3V312.5z"/>
			<path class="st16" d="M307.8,296.9h-149c-1.6,0-2.9-1.3-2.9-2.9v-14.7c0-1.6,1.3-2.9,2.9-2.9h149c1.6,0,2.9,1.3,2.9,2.9v14.7
				C310.7,295.5,309.4,296.9,307.8,296.9z"/>
			<path class="st17" d="M119.9,304.7h-3.6c-1.5,0-2.6-1.2-2.6-2.6v-25.1c0-1.5,1.2-2.6,2.6-2.6h3.6c1.5,0,2.6,1.2,2.6,2.6v25.1
				C122.6,303.5,121.4,304.7,119.9,304.7z"/>
		</g>
		<path class="st18" d="M355.8,349.8H121.6c-5-11.4-5.3-24.1,0-38.2h234.3V349.8z"/>
		<g>
			<path class="st0" d="M386.2,348.8c-6.8,14.3-32.4,29-55.9,35.3L300,174.3c22.5-6.9,50-18.6,54.9-31.4L386.2,348.8z"/>
			<path class="st0" d="M443.1,313.5c-6.8,14.3-33.4,29-56.8,35.3L354.9,143c19-3,39.1-11.4,52.9-27.4L443.1,313.5z"/>
			<path class="st12" d="M420.5,322.8l-97.9,56.3c-1.7,1-3.9-0.1-4.2-2.1L293,176.5c-0.5-4.2,1.6-8.4,5.4-10.3L399,114.6l26.5,198.1
				C426,316.7,424.1,320.7,420.5,322.8z"/>
			<path class="st19" d="M320.5,381.1L293,175.8c-0.5-3.8,1.5-7.5,4.9-9.1l55-26.6l43.1-22.9c2.4-1.3,5.3,0.2,5.7,2.9l26.7,197.4"/>
			<path class="st8" d="M387.2,345.9c-6.8,14.3-32.4,29-55.9,35.3l-30.4-209.7c22.5-6.9,50-18.6,54.9-31.4L387.2,345.9z"/>
			<path class="st8" d="M444,310.6c-6.8,14.3-33.4,29-56.8,35.3L355.8,140c19-3,39.1-11.4,52.9-27.4L444,310.6z"/>
			<path class="st20" d="M355.8,140c0,2,31.4,205.8,31.4,205.8"/>
			<path class="st21" d="M337.2,199.5c7.5-3,14.5-7.1,21.2-11.6c-1.9-11.3-3.4-19.5-3.5-19.4c-12.6,8.4-25.5,15.7-45.1,20.6
				l2.9,17.2C320.9,204.1,329.3,202.7,337.2,199.5z"/>
			<path class="st21" d="M360.1,197.8c-0.4-2.5-0.8-5-1.2-7.4c-6.1,4.1-12.4,7.7-19.2,10.6c-8.6,3.6-17.7,5.1-26.6,7.5l1,5.9
				C330.4,212.9,348.2,208.6,360.1,197.8z"/>
			<path class="st21" d="M360.5,200.5c-12.3,10.4-29.8,14.7-46,16.2l9,52.6c17.7-4.8,36.2-10.5,45.1-20.6
				C368.6,248.8,364.3,222.9,360.5,200.5z"/>
			<path class="st21" d="M412.6,159.2c-6,5.2-12.6,9.7-20.1,13c-8.1,3.5-16.7,5.5-25.3,7.7l18.2,110c13.6-1.6,27.4-9.6,38.7-16.6
				c2.7-1.7,5.3-3.4,7.9-5.2C425.9,233.8,417.4,186,412.6,159.2z"/>
			<path class="st21" d="M388.5,171.7c8.9-3.4,16.7-8.5,23.7-14.7c-2-11.1-3.3-18-3.4-17.9c-8.8,8.8-24.5,20.6-44.1,25.5l2.2,13.5
				C374.2,176.1,381.5,174.4,388.5,171.7z"/>
			<path class="st21" d="M415.7,285.6c5.6-3.1,12-6.2,17.6-10.1c-0.3-1.7-0.6-3.5-0.9-5.2c-3.3,2.2-6.6,4.4-10,6.4
				c-10.8,6.5-23.7,13.7-36.6,15.2l0.7,4.4C396.5,296,407.4,290.2,415.7,285.6z"/>
			<path class="st21" d="M411.8,305.1c8.5-3.9,16.3-9.2,24.3-14c-0.7-4-1.5-8.5-2.4-13.5c-5.5,3.7-11.7,6.8-17.2,9.8
				c-8.4,4.6-19.5,10.4-29.7,10.7l2.4,14.7C396.9,310.7,404.5,308.4,411.8,305.1z"/>
			<path class="st21" d="M411,309c-0.1,0-0.1,0-0.2,0.1c-4.6,2.1-9.4,4.4-14.3,6.1C401.5,313.7,406.4,311.4,411,309z"/>
			<path class="st21" d="M423,304.8c-2.2,1.3-4.5,2.6-6.8,3.8c-8.2,4.3-16.8,8.7-26,10l2.9,17.5c17.7-4.8,37.1-17.4,46.1-27.4
				c0,0-0.7-4.1-1.9-11C432.9,300.6,427.9,302.9,423,304.8z"/>
			<path class="st21" d="M376.8,314.1c-3.1-20.4-7.9-51.7-8.2-51.5c-12.6,8.4-24.2,12.5-41.2,17.6l8.3,49.2
				C350.4,327.2,364.8,323.2,376.8,314.1z"/>
			<path class="st21" d="M336.1,331.8l3,18c17.7-4.8,31.3-8.6,40.2-18.6c0,0-0.9-6-2.2-14.4C365.1,325.6,350.8,329.6,336.1,331.8z"
				/>
		</g>
		<g>
			<path class="st22" d="M221.2,300.6h-39.6c-3.6,0-6.6-2.9-6.6-6.6v-10.2c0-3.6,2.9-6.6,6.6-6.6h39.6c3.6,0,6.6,2.9,6.6,6.6V294
				C227.8,297.6,224.9,300.6,221.2,300.6z"/>
			<path class="st12" d="M244.1,364.5h-88c-5.3,0-9.6-4.3-9.6-9.6v-64.7h107.1v64.7C253.7,360.2,249.4,364.5,244.1,364.5z"/>
			<path class="st23" d="M246.5,336h-92.6c-5.9,0-10.7-4.8-10.7-10.7v-35.1h114v35.1C257.2,331.2,252.4,336,246.5,336z"/>
			<path class="st24" d="M200.1,338.6h-3.3c-1,0-1.8-0.8-1.8-1.8v-3.3c0-1,0.8-1.8,1.8-1.8h3.3c1,0,1.8,0.8,1.8,1.8v3.3
				C201.9,337.8,201.1,338.6,200.1,338.6z"/>
			<path class="st25" d="M202.8,341.2h-8.7c-0.9,0-1.7-0.8-1.7-1.7v-8.7c0-0.9,0.8-1.7,1.7-1.7h8.7c0.9,0,1.7,0.8,1.7,1.7v8.7
				C204.5,340.4,203.7,341.2,202.8,341.2z"/>
		</g>
		<rect x="208.8" y="237.1" class="st26" width="81.4" height="15.7"/>
		<circle class="st26" cx="93.2" cy="246.9" r="9.8"/>
	</g>
</g>
<g>
	<g>
		<path class="st0" d="M453.2,373c1,0.1,2.1,0.2,3,0.7c1,0.5,1.8,1.5,1.8,2.6c-0.1,4.1-7.9,3.6-10.4,3.7c-5.1,0.4-10.1,0.4-15.2,0.4
			c-10.1,0-20.3-0.4-30.4,0.2c-5.2,0.3-10.4,0.9-15.4-1.1c-0.6-0.2-1.2-0.6-1.4-1.3c-0.3-1.3,0.7-2.5,1.6-3c4-2.4,10.4-1.9,14.9-2.2
			c5.7-0.4,11.5-0.7,17.2-0.9c11.3-0.3,22.7,0,34,0.9C453.1,373,453.1,373,453.2,373z"/>
		<g>
			<g>
				<g>
					
						<rect x="443.7" y="272.3" transform="matrix(0.9261 -0.3773 0.3773 0.9261 -77.5139 189.9385)" class="st27" width="4.8" height="41.1"/>
				</g>
				<g>
					
						<linearGradient id="SVGID_4_" gradientUnits="userSpaceOnUse" x1="347.4859" y1="274.9861" x2="352.0128" y2="264.3652" gradientTransform="matrix(-0.9948 -0.1023 -0.1023 0.9948 812.5929 37.2342)">
						<stop  offset="4.700000e-07" style="stop-color:#E8B47D"/>
						<stop  offset="0.1698" style="stop-color:#E8B47D"/>
						<stop  offset="0.3228" style="stop-color:#E9B883"/>
						<stop  offset="0.52" style="stop-color:#EEC293"/>
						<stop  offset="0.7414" style="stop-color:#F5D4AD"/>
						<stop  offset="0.979" style="stop-color:#FEEDD2"/>
						<stop  offset="0.9911" style="stop-color:#FFEED4"/>
					</linearGradient>
					<polygon class="st28" points="435.4,265.7 440.6,272.9 436.1,274.7 					"/>
				</g>
				<g>
					<g>
						<path class="st29" d="M454.8,314.6l0.3-0.1c1.2-0.5,1.7-1.8,1.2-2.9l-0.6-1.5l-4.4,1.8l0.6,1.5
							C452.3,314.5,453.6,315,454.8,314.6z"/>
					</g>
				</g>
				<g>
					
						<rect x="435.3" y="264.5" transform="matrix(0.9261 -0.3774 0.3774 0.9261 -68.2083 184.0429)" class="st30" width="0.6" height="3.2"/>
				</g>
			</g>
			<g>
				<path class="st31" d="M446.8,376.6c-0.8,0-1.6,0.1-2.4,0.3c-0.1-0.8-0.2-1.6-0.3-2.4c-0.1-0.5,0-1.8-0.4-2
					c-2.2,3.1-6.6,4.8-10.3,4.2c-0.6-0.1-1.4-0.4-1.4-1.1c0-0.5,0.4-0.9,0.8-1.2c1.5-1.1,3.4-1.6,4.9-2.7c2.5-1.9,3.1-4.9,2.6-7.8
					c0.9-0.3,2-0.4,2.9-0.6c1-0.2,1.9-0.5,2.9-0.8c0.5,2.5,1.2,5.2,1.1,7.8C447,371,446.6,376.6,446.8,376.6z"/>
				<path class="st32" d="M383.3,202.7c0.6-0.9,1.8-1.5,2.8-1.4c0.1-0.2,0-0.5-0.1-1c-0.1-0.5-0.3-1-0.3-1.5c0-0.6-0.1-1.4,0.5-1.8
					c0.1-0.1,0.2-0.1,0.3,0c0.4,0.2,0.6,0.8,0.6,1.3c0.2,0.5,0.3,1.1,0.4,1.7c0.2,1.3,0.5,2.5,0.8,3.8c0,0,0.1,0.1,0.1,0.1
					c0.3-0.8-0.1-2.2,0.3-2.9c0.1-0.1,0.2-0.2,0.3-0.1c0.5,0.2,0.6,0.9,0.6,1.6c0.2,1.2,0.2,2.5,0.2,3.6c0,0.7-0.2,1.4-0.5,2
					c0.5,1.7,1.2,3.5,1.9,5c1.9,4.4,4.4,8.5,6.3,13c0.8,1.9,5.2,1.4,7.3,1.5c2.9,0.1,5.8,0.1,8.7-0.1c3.3-0.2,6.7-0.5,9.7,0.9
					c1.5,0.7,2.9,2.1,2.7,3.7c-0.1,1.1-1,2-1.9,2.7c-2.1,1.6-4.8,2.3-7.5,2.5c-1.9,0.1-3.9-0.1-5.8-0.3c-1.6-0.2-3,0.1-4.6,0
					c-3.5-0.2-7.1-0.8-10.4-2.1c-0.9-0.4-1.8-0.8-2.5-1.4c-0.5-0.4-0.9-1-1.2-1.6c-1.8-2.1-3-5.6-3.4-7.2c-1.2-4.1-1.9-8.2-2.7-12.4
					c-0.2-1-0.4-1.9-0.7-2.9C384.2,207.8,381.8,204.8,383.3,202.7z"/>
				<path class="st32" d="M429.4,206.2c-0.8,1.1-1.3,2.3-1.8,3.6c-0.5,1.5-1,3.6-0.2,5c0.6,1.1,2,1.5,2.3,2.7
					c0.4,1.3-0.6,2.8-1.1,3.9c-0.8,1.7-1.8,3.2-2.6,4.9c-0.1,0.2-0.1,0.4-0.1,0.5c0.5,0.9,3.9,2.7,4.9,3.1c4.3,1.8,4.8-1.7,5.6-5
					c0.7-3.3,1.9-6.6,3.4-9.7c0.7-1.4,1.5-2.5,1.6-4c0.1-1.6-0.2-3.2-0.6-4.7c-0.4-1.2-2.7-3.4-3.9-3.8c-2-0.8-4.7,0.5-6.1,1.8
					C430.3,205,429.8,205.6,429.4,206.2z"/>
				<g>
					<path class="st32" d="M451.6,275.4c-1,4.2-2.4,7.9-4.1,11.8c-0.3,0.8-0.5,1.7-0.7,2.6c-0.1,0.9-0.1,2-0.4,3
						c-0.2,1-0.7,1.9-1.5,2.6c-0.1,0.1-0.2,0.1-0.3,0.1s-0.2-0.1-0.3-0.1c-1.2-1.1-2.2-2.6-2.3-4.2c-0.2-2.1,1.1-4.5,1.7-6.5
						c0.3-1.2,0.4-2.4,0.5-3.6c0.2-2.3,0.4-4.7,0.5-7c0.2-2,0.3-4-0.1-5.9c-0.4-2.1-1.3-4.4-1.9-6.5c-0.8-2.5-2-4.8-3-7.2
						c-0.6-1.4-1.2-2.9-0.9-4.4c0.3-1.5,1.1-2.3,2.1-3.3c0.4-0.4,0.8-0.8,1.4-0.9c1-0.2,1.8,0.1,2.5,0.8c0.7,0.7,1,1.5,1.4,2.5
						c2.1,5,4.7,9.8,6,15.1C453.2,268.1,452.5,271.8,451.6,275.4z"/>
				</g>
				<path class="st23" d="M435.7,244.9c0.3,1.1,1.8,6.9,2.2,10.2c3.8-1.7,7.5-3.5,11.2-5.4c0,0,0.1,0,0.1-0.1c0-0.1-0.1-0.2-0.1-0.4
					c-0.3-0.9-0.7-1.8-1-2.7c-0.7-1.9-1.4-3.7-2.1-5.6c-0.9-2.5-1.9-5-3.3-7.3c-1.5-2.5-4.1-5.8-7.2-6.2c-0.5-0.1-0.9-0.1-1.4,0.1
					c-1.2,0.5-1.4,2.1-1.4,3.4C432.9,235.8,434.3,240.4,435.7,244.9z"/>
				<path class="st31" d="M401.7,371c-0.3,0.3-0.6,0.7-1,1c-1.4,1.4-3.3,2.3-5.3,2.6c-0.7,0.1-1.5,0.1-2,0.5c-1.5,1.1,0,2.4,1.2,2.6
					c2.9,0.4,6.1,0.5,8.4-1.2c1-0.7,1.7-1.6,2.6-2.4c0.7-0.6,1-0.3,1.1,0.5c0.1,0.3-0.1,3.8-0.3,3.9c0.1,0,2.3-0.1,2.3-0.1
					c-0.1-1.8,0.2-3.7,0.6-5.5c0.3-1.7,0.3-3.5,0.7-5.2c-0.5-0.1-5.9-0.9-6-0.5C403.8,368.7,402.8,369.9,401.7,371z"/>
				<path class="st23" d="M441.8,244.8c-1.3,2-2.9,3.8-4.1,5.8c-2.5,4.2-4.5,8.8-6,13.5c-0.8,2.6-0.6,4.5-0.5,7
					c-4.9,1.3-10.6,1.3-15.7,1.5c-1,0-2.1,0.1-3-0.3c-3.7-1.4-0.9-9.4-0.2-11.9c1.5-5.4,2.9-10.8,1.5-16.4c-0.4-1.8-1.1-3.6-1.1-5.4
					c0.1-3.4,2.6-6.3,5-8.7c2.8-2.9,5.6-5.5,9.7-4.8c4,0.7,7.8,1.7,11.2,4c3.3,2.2,5.7,6,5.4,10C443.9,241.2,442.9,243,441.8,244.8z
					"/>
				<path class="st33" d="M402.7,345.7c0.8-6.8,1.6-13.6,1.8-20.5c0.6-13.5-0.2-27.3,2-40.7c0.9-5.6,3.7-21.4,12.8-16.9
					c3.6,1.8,4.1,6.6,4.2,10.6c0,1.4,0,2.8,0,4.2c-0.2,29.3-6.1,57.9-9,86.9c0-0.1-14.4-0.8-14.4-1.7
					C400.8,360.3,401.8,353,402.7,345.7z"/>
				<path class="st34" d="M444.2,328.5c1.3,5.5,1.8,10.9,2.8,16.4c0.6,3.2,0.9,6.4,1.1,9.6c0,1,0.7,8.3-0.1,8.6
					c-3.8,1.8-7.9,3.2-12,4.3c0-0.5,0-1-0.1-1.4c-0.8-15.4-4.9-32-13-45.3c-6.1-10-5.7-23.3-10.5-34c-2-4.4-4.8-9.1-3.6-13.7
					c0.3-1.1,1-5,1.5-5.7c1.1-1.3,3.5-0.6,5.3-0.5c4.7,0.2,9.3,0.4,14,0.6c0.4,0,0.9,0,1.2,0.3c0.4,0.3,0.6,0.7,0.8,1.1
					c1.8,4.3,3.7,8.1,3.7,12.8c0,2.6-0.4,5.2-0.4,7.9c0,4.3,1.4,9.4,2.5,13.6c1.4,5.4,2.9,10.7,4.3,16
					C442.7,322.3,443.5,325.4,444.2,328.5z"/>
			</g>
		</g>
		<path d="M441,201.4c-0.8-0.3-1.5-0.6-2.1-1c-1.1-0.8-1.9-1.8-3.2-2.3c-2.8-1.1-5,1.5-5,4.1c-0.1,2.7,2.2,4.9,3.1,7.3
			c1.1,2.9-0.3,5.3,0.4,8.2c0.3,1.1,1.4,2.4,2.7,2.5c1.4,0.1,2.4-1.3,3.6-1.9c0.5-0.2,1-0.4,1.5-0.5c3.8-1.4,5.9-5.2,5.2-9.1
			c-0.3-1.7-1.3-3.9-2.4-5.2C443.9,202.3,442.4,201.9,441,201.4z"/>
		<ellipse class="st32" cx="434.2" cy="212.1" rx="2" ry="1.5"/>
		<path d="M445.9,202.1c1.5-0.6,3.4-0.3,4.7,0.8c1.2,1,1.9,2.8,1.3,4.4c-0.2,0.4-0.4,0.8-0.7,1.2C446,214.5,439.7,204.7,445.9,202.1
			z"/>
		<path class="st35" d="M437.3,251.4c1.8-3.6,5.4-6.6,5.7-10.9"/>
		<path class="st23" d="M414.9,226.3c-0.4-0.1-0.8-0.1-1.1,0c-0.6,0.2-0.9,0.9-1.1,1.4c-1.4,3.6-2.7,7.2-4.1,10.8
			c2.2,1,4.5,1.7,6.9,2c1.6,0.2,3.3,0.3,4.8-0.4c1.6-0.7,2.7-2.2,3.8-3.6c1.5-2.1,6-8.3,3.3-11C424.9,223.1,418,226.7,414.9,226.3z"
			/>
	</g>
	<g>
		<path class="st0" d="M98.9,399.9c-1.4,0.1-2.7,0.1-4.1,0.2c-4.8,0.3-9.7,1.3-14.5,1.3c-4.3,0-8.8,1.3-12.7,3.3
			c-2.3,1.2-6.2,4.2-6.6,7.2c-0.5,3.4,2.6,6,5.6,7.1c3.3,1.2,6.8,1.5,10.2,1.8c12.3,1,24.7,1.2,37.1,1.1c16.9-0.2,34-0.8,50.7-3.7
			c1.4-0.2,2.9-0.5,4.2-1.4c1.2-0.8,2.2-2.4,2.1-4c-0.2-2.1-2.1-3.5-3.9-4.4c-3.3-1.7-6.7-3.2-10.3-4.3c-9.9-3.1-20.3-3.6-30.6-4
			C117,399.8,108,399.5,98.9,399.9z"/>
		<g>
			<path class="st36" d="M85.2,378.7H44.6c-1.3-2.4-1.3-4.8,0-7.2h40.6V378.7z"/>
			<path class="st12" d="M81.9,389.1H41.3c-1.3-2.4-2-6.4,0-11.1h40.6V389.1z"/>
			<g>
				<path class="st36" d="M87.2,400.2H47.3c-2-2.4-2.7-8-0.7-11.1h40.6V400.2z"/>
				<path class="st37" d="M89.9,411.4H49.9c-2-2.4-2-7.2-0.7-11.1h40.6V411.4z"/>
				<path class="st11" d="M74.8,396.2h-17c-0.6,0-1.1-0.5-1.1-1.1V395c0-0.6,0.5-1.1,1.1-1.1h17c0.6,0,1.1,0.5,1.1,1.1v0.1
					C75.9,395.7,75.4,396.2,74.8,396.2z"/>
				<path class="st11" d="M74.8,376.3H56.3c-0.2,0-0.4-0.2-0.4-0.4v-2.4c0-0.2,0.2-0.4,0.4-0.4h18.5c0.2,0,0.4,0.2,0.4,0.4v2.4
					C75.2,376.2,75,376.3,74.8,376.3z"/>
				<path class="st23" d="M47.1,385.9h-0.3c-1.2,0-2.2-1-2.2-2.2v-0.4c0-1.2,1-2.2,2.2-2.2h0.3c1.2,0,2.2,1,2.2,2.2v0.4
					C49.3,384.9,48.3,385.9,47.1,385.9z"/>
				<path class="st23" d="M74.9,385.1H53.5c-0.5,0-0.9-0.4-0.9-0.9v-1.3c0-0.5,0.4-0.9,0.9-0.9h21.4c0.5,0,0.9,0.4,0.9,0.9v1.3
					C75.9,384.7,75.5,385.1,74.9,385.1z"/>
				<rect x="51.3" y="404.2" class="st36" width="20.6" height="3.2"/>
				<path class="st11" d="M49.2,376.3h-1.8c-0.4,0-0.8-0.3-0.8-0.8v-0.9c0-0.4,0.3-0.8,0.8-0.8h1.8c0.4,0,0.8,0.3,0.8,0.8v0.9
					C49.9,376,49.6,376.3,49.2,376.3z"/>
			</g>
		</g>
		<path class="st0" d="M176.2,418.1c5.5-0.3,11,0.1,16.3,1.2c1.9,0.4,3.9,1,5.5,2.2c1.5,1.2,2.6,3.3,2,5.2c-0.6,2.1-2.8,3.3-4.9,3.9
			c-5.9,1.9-12.3,1.6-18.5,0.9c-4.4-0.5-8.9-1.3-12.5-3.8c-2-1.3-3.7-3.7-2.9-6c0.7-1.9,3-2.7,5-3.1c5.1-1,10.3-1.2,15.4-0.6"/>
		<g>
			<g>
				<g id="XMLID_401_">
					<g id="XMLID_194_">
						<path id="XMLID_1673_" class="st38" d="M161.9,403.8l-5.1,7.4c1.9,1,7.3,4.6,13.2,6.5c0,0,3.1,0.8,4.3-1.9
							c0.5-1-0.5-1.9-0.3-2.6C171.9,411.9,163,405,161.9,403.8z"/>
					</g>
				</g>
				<g id="XMLID_192_">
					<g id="XMLID_225_">
						<path d="M170.9,422.7c-0.3,0-0.6,0-0.9,0.1c-0.8-1-1.6-2-2.5-3c-0.8-1.4-2.5-3.6,0.1-3.7c0.6,0,1.3,0,1.9-0.1
							c0.9-0.2,1.8-0.5,2.5-1.2c0.6-0.6,0.8-2,1.7-2.1c0.5-0.1,1.5,0.5,2,0.6c0.8,0.2,1.6,0.2,2.4,0.2c4,0,7.8-1.8,11.7-1.2
							c1,0.2,2.1,0.6,2.6,1.5c0.6,1.3-0.4,2.9-1.7,3.6c-3.9,2.2-8,2.8-12.4,3.5c-0.1,0-0.1,0-0.1,0c-1.4,0.2-2.8,0.3-4.1,0.3
							C172.9,421.8,171.7,422.3,170.9,422.7z"/>
					</g>
				</g>
				<path d="M62.6,348.5c0.5-1.9,1.5-3.7,2.7-5.3c1.6-2.3,3.6-4.3,5.4-6.5c3.3-4.2,5.8-9,9.2-13c2.3-2.7,4.4-4.1,7.9-3.2
					c3.1,0.8,5.7,3,8.1,4.9c3.1,2.5,1.6,7.5,1.4,11c-0.1,2.1-0.3,4.3-0.7,6.4c-0.6,2.9-1.8,5.7-3,8.4c-1.8,4-3.8,7.9-6.5,11.3
					c-2.7,3.4-6.2,6.3-10.4,7.6c-6.7,2.2-11.7-7.4-13.3-12.3c-0.7-2.3-1.5-4.6-1.4-7C62.2,350.1,62.3,349.3,62.6,348.5z"/>
				<g id="XMLID_229_">
					<g id="XMLID_226_">
						<path class="st32" d="M176.7,425.4c-0.6,0.2-1.3,0.2-2-0.1c-4.3-2-8.7-3.9-13-5.9c2.1-2.5,4-5.3,6-7.9
							c2.2,1.7,4.4,3.4,6.8,4.8c1.6,1,3.1,2.1,4.7,3c0.3,1.1,0.8,2.3,0.5,2.9C179,423.6,178,425,176.7,425.4z"/>
					</g>
				</g>
				<g id="XMLID_191_">
					<g id="XMLID_228_">
						<path class="st32" d="M79.1,344.2c0.7-0.7,1.7-1.1,2.4-1.8c1.1-1.1,1.5-2.7,1.6-4.2c0-1.2-0.9-3.9-0.2-4.8
							c0.7-1,4.1-0.1,5.1,0c1,0.1,2,0.3,2.9,0.3c0.6,0,1.3-0.1,1.9,0.2c-0.2,0.8-0.4,1.6-0.6,2.4c-0.4,1.4-0.9,3.2,0.1,4.4
							c1,1.2,2.1,2.2,3.6,2.8c0.5,0.2,1,0.4,1.4,0.6c1.2,0.8,1.1,2.1,0.4,3.2c-0.7,1.1-1.5,2-2.4,2.9c-0.7,0.6-1.4,1.2-2.1,1.7
							c-1.7,1.3-3.6,2.5-5.8,2.6c-2.6,0.1-5-1.1-6.7-3.1C78.9,349.6,76.9,346.3,79.1,344.2z"/>
					</g>
				</g>
				<g id="XMLID_389_">
					<g id="XMLID_230_">
						<path id="XMLID_1658_" class="st38" d="M108.9,355.7c-0.5-1-2.3-3-3.1-3.6c-1.3-1-2.8-1.5-4.4-0.6c-0.7,0.4-1.2,1-1.7,1.7
							c-1.5,2.3-1.2,5-0.7,7.6c0.9,4.4,2,8.9,4.1,12.9c2.1,4,5.3,7.6,9.4,9.3c2.1,0.8,4.5,1.2,6.5,0.2c0.3-0.1,0.6-0.3,0.7-0.6
							c0.3-0.6-0.1-1.3-0.5-1.8c-1.8-2.1-4.5-3.6-5.7-6.1c-1-2.2-1.6-4.9-2.1-7.2C111,364.3,109.9,357.8,108.9,355.7z"/>
					</g>
				</g>
				<g id="XMLID_385_">
					<g id="XMLID_190_">
						<path class="st23" d="M79.2,344c0,0,3.7,4.3,9.8,3.3c3.8-0.7,5.5-2.4,6.3-4.2c1.5,0.7,3.2,1.2,4.6,1.7c1,0.3,1.9,0.7,2.8,1.1
							c-1.9,1.9-1.2,9.6-1.1,12.3c0.1,1.5,0.2,4.7,0.2,4.7c0.1,3.7,0.2,6,0.7,8.5c0.8,3.9,0.4,4.6,1.1,6.8c0.7,2.2-0.5,4.1-0.8,6.4
							c-0.2,1.1-6.6,0.7-7.6,1c-1.9,0.5-14,3.6-15.4-0.7c-0.7-2.2-1.2-7.2-1.7-11c-0.1-1.9,0.1-6.3,0.1-7.9c0.1,0,0.2-0.1,0.3-0.3
							c0.4-2.4,1.1-4.9,0.7-7.4c-0.3-1.8-1.1-3.5-2.6-4.6c-2.1-1.7-5.8,0.1-8.4,0.5C69.1,347,73.2,346.1,79.2,344z"/>
					</g>
				</g>
				<g id="XMLID_188_">
					<g id="XMLID_189_">
						<path class="st23" d="M101.4,345.4c1.8,0.7,3.5,1.6,5,2.9c0.5,0.6,1,1.3,1.5,2c1.8,4.1,2.4,9.4,2.4,9.4s-10.8,2.7-12.5,2.2
							C96.5,356.8,95.7,346.1,101.4,345.4z"/>
					</g>
				</g>
				<g id="XMLID_186_">
					<g id="XMLID_187_">
						<path id="XMLID_1639_" class="st9" d="M139,382.9c-2.7-2.1-6.3-2.9-16.6,0.1c-6.5,1.9,4.6,8,7.6,12.4c7.4,10.6,15,8.5,26,15.2
							c0.4,0.2,8.5-3,9.5-5.6C160.2,400.1,140.2,383.9,139,382.9z"/>
					</g>
				</g>
				<g id="XMLID_184_">
					<g id="XMLID_185_">
						<path class="st31" d="M80.3,382.4c0.3-1.3,0.2-2.5,1.7-3c0,0,0,0,0,0c3.2,0.1,6.4-0.3,9.6-0.9c0.5-0.1,1.1-0.2,1.6-0.3
							c3.4-0.3,6.9-0.4,10-1.6c0.3,0.3,0.5,0.7,0.7,1c1,1.3,2.2,2.4,3.4,3.5c4,3.4,9.2,5.4,14.2,6.8c6.9,1.9,20.8,4.3,27.5,8.6
							c7.3,4.8,20,13.7,20.3,14c0.3,0.3-2.8,5.4-3,5.9c-0.6,1.1-1.3,2.3-1.9,3.4c-0.8,1.4-1.5,1.1-3,0.5
							c-7.7-3.1-14.9-7.4-22.2-11.4c-2.3-1.3-4.8-2.6-7.5-2.6c-3.6-0.1-7.1,1.8-10.7,2.3c-3.9,0.5-7.9,1-11.8,1.3
							c-5.9,0.6-12.1,0.9-17.9-0.6c-3.8-1-7.5-3.1-9.9-6.3c-1.2-1.6-2.2-3.1-2.6-5.2c-0.3-2.1-0.1-4.3,0.1-6.4
							C79.4,388.4,79.7,385.4,80.3,382.4z"/>
					</g>
				</g>
				<g id="XMLID_183_">
					<g id="XMLID_1243_">
						<path id="XMLID_1636_" class="st32" d="M78.4,384.3c2.7,2.1,5.8,3.7,9.2,4.5c4.7,1.1,9.6,0.9,14.3-0.4c0.5-0.1,1-0.3,1.4-0.7
							c0.4-0.4,0.6-1,0.4-1.4c-0.1-0.3-0.4-0.5-0.7-0.7c-1.2-0.7-2.6-1-3.9-1.4c-3.9-1.1-7.7-2.5-11.1-4.6c-3.2-2.1-6.8-5.3-7.7-9.2
							c-0.9-4.1-1.4-8.3-3.4-12c-0.3-0.6-0.7-0.4-1.3-0.8c-0.7-0.4-1.2-2.7-1.9-2.4c-3.8,1.4-5,4.2-5,8c0,5.2,1.3,9.6,4,14.1
							c0.8,1.4,1.7,2.8,2.8,4C76.3,382.4,77.3,383.4,78.4,384.3z"/>
					</g>
				</g>
				<g id="XMLID_384_">
					<g id="XMLID_282_">
						<path id="XMLID_1627_" class="st23" d="M78.1,350.4c-2.1-1.6-6.1-0.4-8.6,0.1c-0.5,0.8-1.2,2.4-1.4,4
							c-0.4,2.6,0.6,11.4,0.6,11.4c3.3,0.6,7.3-0.8,10.7-1C79.9,361.2,81.6,353.2,78.1,350.4z"/>
					</g>
				</g>
				<g id="XMLID_305_">
					<g id="XMLID_1203_">
						<path class="st9" d="M78.8,392.2c0.4-3,3.3-5,6.2-4.3c0,0,0,0,0,0c2,0.5,4.1,0.8,6.3,1c5.9,0.4,11.1-1.3,16.7-2.7
							c5.9-1.5,11.8-2.9,17.8-4c6-1.1,7.4-0.9,11.4,2.7c2.4,2.2,7.3,5,8.9,7.7c-2.1,0.9-3.1,0.9-5.2,1.4c-3.1,0.7-6.2,2.5-9.1,3.8
							c-6.5,2.8-8.4,5.9-14.9,8.7c-3.9,1.7-17.6,7.2-21.8,7.4c-3.8,0.2-7.5,0.3-10.6-2.1C78.5,407.1,77.9,399.4,78.8,392.2z"/>
					</g>
				</g>
				<g id="XMLID_392_">
					<g id="XMLID_395_">
						<g id="XMLID_396_">
							<g id="XMLID_1183_">
								<path id="XMLID_1559_" class="st37" d="M186.1,410.9c0.7-0.8,1.4-1.7,2.3-2.2c0.9-0.5,2.2-0.6,3,0.2c0.6,0.5,0.6,1,0.5,1.8
									c-0.1,0.6-0.2,1.2-0.5,1.8c-0.4,0.9-6.3,12.3-9.6,16.6c-0.6,0.8-1.4,0.8-1.9,0.5c-1.7-0.9-3.6-2-5.2-3
									c-0.6-0.3-0.5-1.2,0-1.5c5.4-3,2.5-6.9,2.5-6.9C181.4,415.7,186.1,410.9,186.1,410.9z"/>
							</g>
						</g>
					</g>
				</g>
				<g>
					<g id="XMLID_182_">
						<g id="XMLID_227_">
							<path id="XMLID_1664_" class="st32" d="M82.2,334.2c1.8,1.7,3.9,3.5,6.6,3.3c1.5-0.1,3.3-0.9,4.3-2c1.1-1.1,1.4-3.2,1.8-4.7
								c0.6-2.7,1-5.8-0.4-8.2c-1.3-2.3-4.9-2.8-7.3-2.3c-2.2,0.5-4.3,2-5.1,4.1c-0.2,0.4-0.3,0.8-0.4,1.2c-0.2,1.2-0.3,2.5-0.3,3.7
								c0,1,0.2,2,0.4,3.1C81.9,333.1,82.1,333.6,82.2,334.2z"/>
						</g>
					</g>
					<g id="XMLID_386_">
						<g id="XMLID_1193_">
							<path id="XMLID_1575_" class="st39" d="M90,333.4c-0.7,0.6-1.7,0.5-2.3-0.2c-0.2-0.3-0.7,0-0.5,0.3c0.8,1.1,2.2,1.2,3.2,0.3
								C90.7,333.6,90.3,333.2,90,333.4z"/>
						</g>
					</g>
					<g id="XMLID_1286_">
						<g id="XMLID_1380_">
							<path id="XMLID_1535_" d="M94.4,319c-1.6-1.2-3.7-1.9-5.7-1.9c-3.9-0.1-7.6,1.9-10.3,4.7c-0.7,0.8-1.4,1.6-1.9,2.6
								c-0.4,0.9-0.7,2-0.9,2.9c-0.4,1.4-1,2.8-1.6,4.2c-0.6,1.2-1.4,2.3-1.6,3.5c-0.5,2.1,0.5,4.4,2.3,5.6c1.3,0.8,2.9,1,4.3,0.7
								c1.1-0.3,3.3-0.5,3.8-1.5c0.6-1.4,0.4-2.7,0.2-4.2c-0.2-1.6-0.2-3.4-0.1-5.1c0.1-1.2,0.2-2.3,0.6-3.4
								c1.1-2.5,3.9-4.1,6.6-3.8c1.9,0.3,2.1,1.9,2.5,3.5c0.2,0.9,0.5,1.7,0.8,2.5c0.3,0.8,0.7,1.7,1.3,2.3c0.6,0.7,1.4,1.2,2.3,1.2
								c1,0,1.9-0.5,2.6-1.1c0.6-0.5,1.1-1.3,0.9-2.1c-0.2-0.6-0.9-1-1.3-1.5c-1.1-1.3-1.2-3.3-1.7-4.9
								C97.1,321.6,95.9,320.1,94.4,319z"/>
						</g>
					</g>
					<g id="XMLID_180_">
						<g id="XMLID_181_">
							<path id="XMLID_1515_" class="st32" d="M84.1,329.2c-0.1-0.3-0.3-0.5-0.5-0.7c-0.3-0.3-0.8-0.3-1.2-0.2
								c-0.5,0.2-0.9,0.8-0.9,1.4c0,1.3,1.5,2,2.4,1.1C84.2,330.5,84.3,329.8,84.1,329.2z"/>
						</g>
					</g>
				</g>
				<g id="XMLID_170_">
					<path id="XMLID_177_" class="st8" d="M126.3,382.1l-32.1,7.2l0,0c-0.1-0.6,0.2-1.2,0.9-1.4l31-7L126.3,382.1z"/>
					<path id="XMLID_176_" class="st8" d="M131.5,379.7L99.5,387l1.9-18.2c0.1-0.6,0.6-1.2,1.2-1.3l28.9-6.5c1-0.2,1.9,0.5,1.8,1.5
						L131.5,379.7z"/>
					
						<rect id="XMLID_175_" x="99.1" y="383.4" transform="matrix(0.9756 -0.2197 0.2197 0.9756 -81.5378 34.7754)" class="st40" width="33" height="1.1"/>
					<path id="XMLID_172_" class="st8" d="M116.6,371.9c0,0-0.1,0-0.1,0c0,0-0.1,0-0.1,0c-0.8,0.2-1.3,0.9-1.2,1.7
						c0.1,0.7,0.9,1.1,1.6,1c0.7-0.1,1.3-0.7,1.3-1.4C118,372.5,117.3,371.9,116.6,371.9z M116.7,374.1c-0.6,0.1-1.3-0.3-1.1-1.1
						c0.1-0.3,0.4-0.6,0.8-0.7c0,0,0,0,0,0c0,0,0,0,0.1,0C117.7,372.3,117.9,373.9,116.7,374.1z"/>
				</g>
			</g>
		</g>
	</g>
	<g>
		<path class="st41" d="M161.6,209.8c-1.5,2.8,0.9,4.9,2.9,6.8c0.5,0.5,1.1,1,1.8,1.3c1.2,0.5,2.6,0.4,3.9,0.2
			c9.3-1,18.8-2.3,28-4.3c2.2-0.5,4.3-1,6.4-1.5c2.8-0.6,5.7-1.9,8.4-2.9c2.7-1.1,5.3-2.6,7.5-4.5c0,0,0.1-0.1,0.1-0.1
			c0.4-0.2,0.7-0.5,1-1c1.2-1.3,1.9-3,1.3-4.5c-0.8-1.8-3-2.3-4.9-2.4c-5.7-0.5-11.5,0.2-17.1,1c-3.8,0.6-7.6,1.4-11.4,1.9
			c-3.9,0.5-7.6,0-11.5,0.1C171.3,200.1,164.8,203.9,161.6,209.8z"/>
		<path class="st32" d="M158.8,184.8c0.1,0.5,0.3,1,0.4,1.5c1.1,3.1,3.3,5.6,5.7,7.7c2.4,2.1,4.3,4.3,7.3,5.6
			c1.6,0.7,3.4,1.3,5.1,1.3c1.3,0.1,3.5-0.2,3.6-1.8c0.1-1.5-1.4-2.9-2.6-3.3c-1.5-0.6-3.1-0.6-4.6-1.2c-1.9-0.7-3.4-2.2-4.5-3.8
			c-2.1-3.1-3.5-6.7-2.8-10.4c0.5-2.8,1.4-5.5,2.7-8.1c0.9-1.9,3.5-4.6,2.4-6.9c-1.2-2.5-5-1.2-6.4,0.3c-2.2,2.5-4,6.1-5.2,9.2
			C158.6,178.1,158.1,181.5,158.8,184.8z"/>
		<path class="st32" d="M212.9,185.9c0.1,3.3-2.8,5.5-5,7.6c-3.6,3.5-7.8,5.9-12.8,6.4c-1.9,0.2-5.6-1.1-3.7-3.8
			c0.7-0.9,1.8-1.3,2.9-1.7c2-0.7,3.9-1.8,5.7-2.9c1.6-1,3.7-2.1,4.8-3.6c0.8-1.1,0.5-2.6,0.1-3.9c-1.1-3.5-2.8-6.7-4.3-10.1
			c-0.9-2-2.9-8.8,1.1-8.9c3.9-0.1,5.3,4,6.5,6.9c1.5,3.6,2.9,7.3,4.1,11C212.7,184,212.9,185,212.9,185.9z"/>
		<path class="st42" d="M205,165c-0.9-1.3-1.9-2.6-3-3.8c-1.2-1.3-2.4-2.4-4.2-2.9c-1.8-0.6-3.7-0.8-5.6-0.8c-2.1,0-4.1,1.1-6.2,1.2
			c-2.1,0.1-4.3-0.5-6.3-0.8c-2.1-0.3-3.9-0.3-5.9,0.5c-5.9,2.3-10.4,7.4-14.1,12.5c-0.3,0.5-0.1,1.1,0.4,1.3c2.7,1,5.4,2.1,8.1,3.3
			c0.6-1,1.1-1.9,1.8-2.9c0.8,1.9-1,14.6-0.5,20c0.2,2.2,0.3,4.4,1,6.5c0.1,0.4,0.3,0.7,0.4,1.1c4.5-0.1,9-0.1,13.6-0.1
			c3.2,0,6.5,0,9.7-0.5c1.7-0.2,3.3-0.5,5-0.4c0.9-3.1,0.6-6.7,0.7-9.8c0.1-4.9-0.2-9.8-0.4-14.7c0.6,0.8,1.2,1.6,1.8,2.4
			c1.5-1.3,3.1-2.5,4.6-3.7c1.1-0.9,3.1-1.8,2.2-3.3C207.1,168.2,206.1,166.5,205,165z"/>
		<path class="st32" d="M182.2,219c-0.6,0.6-13.3,3.4-13.3,3.4l-0.6-6.4l11.8-4.2L182.2,219z"/>
		<path class="st32" d="M192.1,157.5c-0.7-0.1-1.7-0.1-2.2-0.7c-1.1-1.2-1.2-3.4-0.9-4.9c0.1-0.3,0.1-0.7,0.3-1
			c0.2-0.4,0.5-0.8,0.8-1.2c1.1-1.6,1.1-3.6,0.9-5.5c-0.1-1.3,0.1-3.1-0.9-4c-0.6-0.5-1.1-1-1.8-1.4c-0.8-0.5-1.7-0.9-2.6-1
			c-1.6-0.3-3,0.1-4.3,1c-1.3,0.9-1.7,2.4-1.9,3.9c-0.3,1.7-0.4,3.5,0.3,5.1c0.3,0.7,0.7,1.3,1,1.9c0.3,0.6,0.7,1.1,0.8,1.9
			c0.1,0.7,0,1.3,0,2c-0.1,1.2-0.1,4.1-1.8,4.1c-0.4,0-0.7-0.1-1-0.2c0.2,0.2,0.3,0.8,0.4,1.2c0.2,0.5,0.3,0.9,0.6,1.3
			c0.7,1,2,1.9,3.2,2.1c2,0.3,4,0.3,5.8-0.3c1-0.4,2-1,2.7-1.8C191.5,159.5,192.9,157.5,192.1,157.5z"/>
		<path class="st43" d="M222.9,198c-2.2-0.9-4.6-0.9-7-0.8c-1.4,0.1-2.8,0.2-4.2,0.4c-3.1,0.5-6,1.5-8.9,2.7
			c-1.5,0.6-3.1,1.2-4.6,1.7c-1.2,0.4-2.5,0.9-3.7,1.3c-5.8,2.3-11.6,4.7-17.4,7.1c1.6,3.5,3,7.1,4.4,10.6c3.7-0.3,7.4-0.8,11.1-1.5
			c7.1-1.2,14.1-2.3,21.1-4.1c5.1-1.3,12.8-2.4,14-8.7C228.3,203.3,226.2,199.4,222.9,198z"/>
		<path class="st37" d="M168.5,223.1c-2.3,0.5-4.7,0-7.2-0.3c-2-0.2-4,0.1-5.9-0.2c-2.5-0.4-5.3-2.8-5.4-5.4c0-0.8,0.2-1.6,0.5-2.4
			c0.2-0.4,0.4-0.8,0.6-1.1c0.6-0.8,1.6-1.2,2.5-1.3c1.8-0.2,3.9,0.7,5.6,1.1c2,0.5,3.9,1.1,5.8,1.9c0.9,0.4,1.6,0.7,2.6,0.7
			c0.2,0,2.5-0.3,2.5-0.6c0.6,2.1,0.3,4.5,1.1,6.5C170.3,222.6,169.4,222.9,168.5,223.1z"/>
		<polygon class="st32" points="169.2,251.3 173.3,263.4 180,262.1 177.3,250 		"/>
		<path class="st43" d="M178.4,255.3c0.7-0.1,1.3-0.3,2-0.4c0.1-0.4,0-0.8,0-1.2c-0.8-7.6-1.6-15.1-2.2-22.7
			c-0.3-4.1-0.2-8.4-0.8-12.5c-0.5-3.3-0.6-6.1,2.2-8.7c2.4-2.2,5.9-2.9,8.4-5.1c0.7-0.6,1.3-1.3,1.3-2.2c0.1-3.2-7.7-4.6-9.9-4.7
			c-1.4-0.1-2.7-0.2-4.1-0.2c-7.1-0.4-13.6,1.4-15.2,9.3c-0.8,4.2,0,8.5,0.8,12.6c1.6,8,3.1,16,4.7,24c0.7,3.5,0.7,8.8,2.3,12
			c1,2.1,1.6,1.3,4.1,0.9C174.2,256.1,176.3,255.8,178.4,255.3z"/>
		<path class="st37" d="M170.8,277.8c0.3-0.2,0.6-0.4,0.9-0.6c2.2-1.5,3.9-3.5,5.7-5.4c1.6-1.7,3.8-3.2,5.1-5.2
			c0.5-0.7,0.5-1.6,0.3-2.3c-0.2-0.8-0.7-1.5-1.2-2.1c-0.6-0.7-1.1-1.5-1.8-2.1c-0.1-0.1-0.2-0.2-0.3-0.2c0,0.1-1.4,0.6-1.6,0.6
			c-1,0.3-2.1,0.5-3.1,0.6c-1.1,0.1-2.2,0.1-3.3,0c0.1,1.1,0.2,2.4,0.2,2.6c0.1,2.8-1,5.1-2.4,7.3c-0.3,0.5-0.7,1.1-1.1,1.7
			c-1.1,1.6-2.7,5.7,0.8,5.7C169.7,278.3,170.2,278.1,170.8,277.8z"/>
		<path class="st23" d="M192.4,140c0,0,0-0.1,0-0.1c0.2-1.6-0.4-3-1-4.5c-0.6-1.3-1.8-2.9-3.3-3.2c-1.2-0.2-2.3,1.1-3.6,1.1
			c-0.4,0-0.7-0.1-1.1-0.1c-0.7,0-1.3,0.4-1.9,0.7c-1.8,1-2.9,2.1-3.6,4.1c-0.6,1.8-0.5,3.9,0,5.7c0.2,0.5,0.5,1,0.6,1.6
			c0.1,0.3,0,0.7,0.2,0.9c0.6,1.1,1.5,0.4,1.4-0.6c0-0.5-0.1-1-0.1-1.5c0-0.5-0.1-1,0-1.5c0.1-0.5,0.3-1,0.7-1.3
			c1.2-0.9,2.2,1.1,3.2-0.4c1.1-1.7,2.2-2.1,4.1-1.7c2,0.5,2.4,2.3,1.8,4.1c-0.1,0.4-0.6,1.3-0.4,1.8c0.2,0.5,0.7,0.4,1.2,0.4
			c0.1,0,0.3,0,0.4,0c0.1-0.1,0.2-0.2,0.3-0.3C192.3,143.5,192.2,141.7,192.4,140z"/>
		<path class="st32" d="M191.4,144.4c-0.6-0.2-1.2,0.1-1.5,0.6c-0.1,0.1-0.1,0.3-0.1,0.5c-0.2,0.8,0.4,1.8,1.4,1.5
			C192.3,146.7,192.7,144.7,191.4,144.4z"/>
		<path class="st32" d="M180.4,145.4c0-0.1-0.1-0.2-0.2-0.2c0,0,0-0.1,0-0.1c-0.4-0.6-1.3-0.4-1.7,0.1c-0.4,0.4-0.6,1.2-0.3,1.8
			c0.3,0.6,1.4,0.7,1.9,0.3C180.7,146.8,180.7,146,180.4,145.4z"/>
		<path d="M186.1,148.6c-0.3-0.2-0.7,0-1,0c-0.5,0-1-0.2-1.4-0.5c-0.2-0.1-0.3,0.1-0.2,0.3c0.4,0.4,0.9,0.6,1.4,0.7
			c0.4,0.1,1,0.1,1.3-0.2C186.2,148.7,186.2,148.6,186.1,148.6z"/>
		<path class="st44" d="M201.5,203.3h-36.9c-0.8,0-1.4-0.6-1.4-1.4v-22.1c0-0.8,0.6-1.4,1.4-1.4h36.9c0.8,0,1.4,0.6,1.4,1.4v22.1
			C202.9,202.7,202.3,203.3,201.5,203.3z"/>
		<circle class="st45" cx="183.1" cy="190.1" r="2.3"/>
	</g>
	<g>
		<path class="st0" d="M371.1,421.1c3,0.4,6.1,0.9,8.4,2.9c0.5,0.4,1,1.1,0.8,1.7c-0.1,0.4-0.4,0.7-0.7,0.9c-1.9,1.4-4.4,1.8-6.7,2
			c-32.9,3.7-66.2,2.1-99.3,4.4c-9.9,0.7-19.9,1.7-29.5-0.6c-1.1-0.3-2.3-0.7-2.8-1.7c-0.7-1.7,1.2-3.3,2.9-4.1
			c7.7-3.5,16.4-3.6,24.8-3.7c14.1-0.3,28.2-0.9,42.2-1.8c12.3-0.8,24.6-2.1,37-1.8C355.9,419.5,363.5,420.1,371.1,421.1z"/>
		<path class="st32" d="M323.5,367c-1.6-1.3-3-0.8-4.4,0.9c-0.6,0.7-1.4,1.4-2.4,1.9c-0.3,0.2-1.8,0.9-1.2,1.2c0,0,0,0.1,0.1,0.1
			c0,0,0,0,0,0.1c0.1,0.2,0.5,0.3,0.8,0.2c0.3,0,0.5-0.1,0.8-0.2c0.6,0.2,1.2,0.2,1.8,0.2c1.6-0.1,3.2-0.6,4.5,0.5
			c1.1,0.9,2.1,2.1,2.8,3.4c0.4,0.8,0.8,1.6,1.4,2.3c0.6,0.7,1.4,1.2,2.3,1.2c0.4,0,0.8-0.2,1.1-0.4c1.3-0.7,2.1-2.3,1.6-3.7
			c-0.7-1.7-2.8-2.2-4.1-3.3C327.2,370.4,323.5,367,323.5,367z"/>
		<g id="XMLID_250_">
			<g id="XMLID_251_">
				<g id="XMLID_252_">
					<path id="XMLID_1815_" class="st32" d="M305.2,368.5c-0.1-0.8,0.2-1.5,0.3-2.3c0.3-2.1-0.5-3.5-1.6-5.3
						c-0.1-0.2-0.2-0.3-0.4-0.4c-0.2-0.1-0.5,0.1-0.6,0.3c-0.1,0.2-0.2,0.5-0.2,0.7c-0.2,1.3-0.4,2.5-0.9,3.7
						c-0.4,1.1-0.9,2.1-1.2,3.2c-0.3,1.1-0.5,2.3,0,3.4c0.5,1.1,1.1,2.2,1.7,3.3c0.9,1.4,1.7,2.7,2.6,4.1c0.3,0.5,0.6,1.2,1.3,1.2
						c0.6,0,1.4-0.4,2-0.6c1-0.3,2.2-0.9,1.7-2.2c-0.2-0.4-0.4-0.8-0.7-1.1c-0.8-1-1.5-2-2.3-3c-0.3-0.4-0.6-0.8-0.8-1.2
						c-0.2-0.4-0.1-0.8-0.1-1.2c-0.1-0.9-0.7-1.7-0.8-2.5C305.2,368.6,305.2,368.5,305.2,368.5z"/>
				</g>
			</g>
		</g>
		<g id="XMLID_246_">
			<g id="XMLID_247_">
				<g id="XMLID_248_">
					<path id="XMLID_1811_" class="st46" d="M370.6,413.4c1.1-2.7,1.1-6,1.7-8.9c-6.7-2.9-13.8-7.9-20-12.1
						c-5-3.4-9.7-7.3-14.3-11.1c-4.2-3.4-8.5-7.5-13.1-10.2c-1.1-0.6-2.3-1.1-3.5-1.3c-2.8-0.7-5.8-0.6-8.4,0.6
						c-2.9,1.3-5.3,3.9-4.8,7.1c0.7,4.2,2,7.9,4.2,11.5c2.8,4.5,6.6,7.8,9,12.6c2.8,5.5,7.1,10.1,11.5,14.5c2.7,2.6,5.4,5.2,8.7,7.1
						c4.5,2.6,9.9,3.6,15.1,3c5.2-0.7,9.5-3.5,12.6-7.8C370.3,416.9,370,414.9,370.6,413.4z"/>
				</g>
			</g>
		</g>
		<g id="XMLID_242_">
			<g id="XMLID_244_">
				<g id="XMLID_245_">
					<path id="XMLID_1803_" class="st46" d="M325.3,379.2c-2,3.2-4.7,5.8-7.5,8.3c-3.2,2.7-6.5,5.2-9.8,7.7
						c-9.4,7-18.8,14.1-29.2,19.7c-2.3-1.7-4.6-3.3-7.1-4.7c0,0,5.5-7.5,5.9-8c3.2-4.3,6.6-8.3,10.2-12.3c0.6-0.6,1.1-1.2,1.7-1.8
						c4.1-4.2,8.4-8,13-11.6c4.4-3.4,9-7.4,14.8-7.6c2.9-0.1,5,1.4,7.2,3c1,0.7,1.6,1.1,1.9,2.3c0.4,1.5,0,2.9-0.7,4.2
						C325.6,378.8,325.5,379,325.3,379.2z"/>
				</g>
			</g>
		</g>
		<g id="XMLID_238_">
			<g>
				<g id="XMLID_196_">
					<g id="XMLID_197_">
						<path d="M277.8,412.4c-1.2-0.7-2.4-1.4-3.6-2.1c-0.5-0.3-1.1-0.6-1.5-0.9c-0.7,0.3-1.3,1.1-1.8,1.5c-1.4,1.1-2.9,2-4.4,2.9
							c-3.1,1.7-6.5,2.8-10,3.4c-1,0.2-3.6,0.3-3.7,1.7c-0.1,1.4,1.7,2.9,2.8,3.3c1,0.4,2,0.4,3.1,0.5c4.7,0.2,9.4,0.5,14.2,0.5
							c1.9,0,3.9,0.1,5.8,0c0.4,0,0.8,0,1.2-0.1c1.7-0.2,2.3-1.2,2.4-2.8c0-0.8,0.1-1.6,0.1-2.4c0.1-1,0.1-2,0.2-3
							C280.9,414.2,279.3,413.3,277.8,412.4z"/>
					</g>
				</g>
			</g>
		</g>
		<g id="XMLID_215_">
			<g id="XMLID_222_">
				<g id="XMLID_223_">
					<g id="XMLID_231_">
						<g id="XMLID_237_">
							<g id="XMLID_1357_">
								<path class="st32" d="M329.9,343.7c-0.1,0-0.1,0-0.1,0.1c0,0,0.2,0.8,0.6,2.1C330.2,345.1,330.1,344.4,329.9,343.7z"/>
								<path class="st32" d="M353.3,360.2c-1.7-2.8-3.3-5.6-4.9-8.4c-1.5-2.7-3-5.5-4.4-8.2c-0.5-1-1-2.1-1.5-3.1
									c-0.4-1.1-0.7-2.2-1-3.3c-0.8-0.1-1.5-0.5-2.4-0.3c-0.9,0.1-1.9,0.4-2.7,0.7c-1.5,0.4-2.4,1.5-3.4,2.6c-1,1.3-1,2.9-0.9,4.6
									c0.7,7.6,3.1,15.3,7.2,21.7c0.4,0.6,0.8,1.2,1.2,1.8c0.4,0.6,0.9,1.2,1.4,1.8c3.1-0.3,6.1-1.3,8.9-2.7
									c2.1-1.1,3.2-2.6,4.4-4.1C354.3,361.7,353.3,360.3,353.3,360.2z"/>
							</g>
						</g>
					</g>
				</g>
			</g>
			<g id="XMLID_217_">
				<g id="XMLID_218_">
					<g id="XMLID_219_">
						<g id="XMLID_221_">
							<g id="XMLID_1352_">
								<path id="XMLID_1789_" class="st32" d="M337,348.7c1.3-0.3,2.6-0.8,3.4-1.8c0.5-0.6,2.9-4.1,2.7-4.7
									c-1.6-3.2-0.8-10.9-1.7-11.5c-1.9-1.4-5.6-2.1-8-2c-3.2,0.2-5.7,0.7-6.7,3.9c-1.1,3.9-2.4,8-1.3,12.1c0.2,0.8,0.5,1.6,1,2.3
									c1,1.3,2.6,2,4.2,2.2c1.6,0.2,3.2-0.1,4.8-0.4C336,348.9,336.5,348.8,337,348.7z"/>
							</g>
						</g>
					</g>
				</g>
			</g>
		</g>
		<g id="XMLID_213_">
			<g id="XMLID_214_">
				<path id="XMLID_1762_" class="st9" d="M371.2,385.3c-0.6-2.4-1.3-4.7-2.2-6.9c-1.9-5.1-4.5-10-7.6-14.4c-3-4.2-6.5-8.6-11-11.5
					c-1.8-1.2-4-2.1-6.2-1.6c-3.1,0.7-6.2,4-8,6.4c-2.1,2.8-2.7,5.7-1.8,9c0.8,2.9,1.8,5.8,2.9,8.5c2.3,5.6,4.6,11.1,5.4,17.2
					c0.3,2.4,0.3,4.8,0.2,7.2c-0.1,1-0.3,1.7,0.8,2c0.9,0.3,1.9,0.3,2.7,0.6c1.4,0.4,2.5,1.3,3.7,2.1c2.8,2,5.9,3.6,9,5
					c2.9,1.2,5.9,2.2,8.2,4.3c0.9,0.9,1.7,1.9,2.8,2.6c-0.1,0,1.2-3.7,1.3-4C374.2,403.3,373.5,393.9,371.2,385.3z"/>
			</g>
		</g>
		<g id="XMLID_210_">
			<g id="XMLID_211_">
				<g id="XMLID_212_">
					<path class="st23" d="M367.3,412.1c-3.9-3.4-8-6.7-12.1-10c-4.3-3.5-8.4-6.9-12.2-10.9c-4.9-5.3-10.3-9.9-16.2-14.1
						c-2.4-1.7-1.5-1-4-2.4c-2.5-1.4-5.5-2.3-8.3-1.7l-7.1,6.1c-0.7,4.8,1.3,9.5,3.9,13.6c2.8,4.5,6,7.9,9,12.6
						c3.4,5.2,7.1,10.1,11.5,14.5c2.7,2.6,5.4,5.2,8.7,7.1c4.5,2.6,9.9,3.6,15.1,3c5.2-0.7,10.2-3.1,12.6-7.8c1-2.1,1.8-4.5,2.5-6.9
						c-0.3-0.3-0.6-0.5-0.7-0.6C369.2,413.7,368.3,412.9,367.3,412.1z"/>
				</g>
			</g>
		</g>
		<path class="st47" d="M298.4,344.7l8.2,26.3c0.1,0.3,0.4,0.5,0.7,0.4l0,0c0.3-0.1,0.6-0.4,0.4-0.8l-8.2-26.3
			c-0.1-0.3-0.4-0.5-0.7-0.4l0,0C298.5,344,298.3,344.3,298.4,344.7z"/>
		<path class="st47" d="M307,370.6v1.1c0,0,24.3,1.7,25,2l0.4-1.7L307,370.6z"/>
		<g id="XMLID_207_">
			<g id="XMLID_208_">
				<g id="XMLID_209_">
					<path class="st23" d="M327.1,378.3c-0.2-1.7-1.5-2.3-2.9-3.1c-2-1.2-4.9-2.4-7.2-2.7c-2.6-0.3-5.7,1.8-7.9,3.1
						c-8.6,5.2-16.3,12-23.3,19.1c-3.6,3.6-7.3,7.3-10.5,11.2c-0.8,1-8.5,11.3-9,11c3.4,1.9,8,2.3,11.4,4.3c2.1-1.8,4.7-3.9,7.1-5.4
						c3.2-2.1,6.4-4.3,9.5-6.5c6.4-4.6,12.6-9.4,18.5-14.5c3-2.6,5.9-5.2,8.7-7.9C323.9,384.8,327.6,381.9,327.1,378.3z"/>
				</g>
			</g>
		</g>
		<g id="XMLID_204_">
			<g id="XMLID_205_">
				<g id="XMLID_206_">
					<path class="st37" d="M278.9,420.7c-1-0.4-2.1-0.6-3.1-1c-1-0.4-2-0.9-3-1.2c-2.1-0.7-4.3-1.3-6.5-1.8
						c-0.9,0.3-1.7,1.2-2.4,1.7c-1.4,0.9-2.7,1.9-4.3,2.5c-1.2,0.5-2.5,0.8-3.8,1.2c-1.6,0.4-3.2,0.8-4.8,1.2
						c-1.2,0.3-3.2,0.4-3.8,1.7c-0.2,0.4-0.1,1,0,1.4c0.4,1.4,1.4,2.6,2.7,3.1c0.9,0.4,2,0.4,3,0.5c4.3,0.2,8.7,0.4,13,0.5
						c2.2,0,4.4,0,6.5-0.1c1.2,0,2.3-0.1,3.5-0.2c0.6,0,2.4,0.2,2.7-0.4c0.2-0.3,0.2-0.7,0.2-1.1c0-2.4,0.1-4.8,0.1-7.2
						c0-0.3,0-0.6,0-0.9C279,420.8,279,420.8,278.9,420.7z"/>
				</g>
			</g>
		</g>
		<path class="st9" d="M351.5,359.6c-0.6-5-5.7-6.9-10.1-5.4c-2.4,0.8-4.4,2.6-5.9,4.6c-1.5,2-2.6,4.3-3.7,6.6l-6.5,13.9
			c-0.3,0.7-0.8,2.6-1.6,2.8c-0.7,0.2-1.6-0.5-2.1-0.8c-0.8-0.5-1.5-1.1-2.2-1.7c-1.9-1.4-3.7-3-5.5-4.5c-0.5-0.4-4.2-3.7-5.5-4.6
			c-1.5,0.8-2.9,2-4.2,2.9c-1,0.7-2,1.4-3,2.1c1.9,2.6,9.7,11.9,10.5,12.8c2.9,3.2,6,6.3,9.8,8.4c2.4,1.3,5.4,1.2,7.6-0.6
			c9.1-7.5,16.3-17.3,20.7-28.3C350.9,365.3,351.8,362.3,351.5,359.6z"/>
		<path class="st32" d="M306.8,369.9c0.2-0.5,0.3-0.9,0.4-1.5c0.1-0.6,0.2-1.2,0.3-1.8c0-0.2,0.1-0.5,0.1-0.7c0-0.2-0.2-0.5-0.4-0.5
			c-0.3-0.1-0.5,0.1-0.7,0.3c-0.8,0.9-0.4,3.4-2.2,3.4c-0.2,0-0.4-0.1-0.6,0c-0.4,0-0.8,0.4-0.9,0.9c-0.1,0.4,0,0.9,0.2,1.3
			c0.2,0.5,0.5,1.8,1.1,1.9c0.6,0.1,1.5-0.8,1.8-1.2C306.3,371.4,306.5,370.6,306.8,369.9z"/>
		<path d="M344.7,339.7c0.1-0.2,0.1-0.5,0.2-0.7c0.4-1.3,1.5-2.7,1.8-4c0.5-2.4-2-5-3.9-6c-2.9-1.5-6.3-1.3-9.4-1.6
			c-2.1-0.2-4.3-0.7-5.7-2.3c-1.8,0.6-3.4,2.1-4.1,3.9c-0.6,1.5-0.6,3.5,0.6,4.6c1.5,1.3,3.2,0.7,4.9,0.5c1.3-0.2,2.7-0.2,4,0
			c1.1,0.2,2.8,0.6,3.4,1.6c0.9,1.4,1.5,3.2,1.1,4.8c-0.1,0.5-0.3,1.1,0.2,1.3c0.1,0.1,0.3,0.1,0.4,0.1c1.5,0,3.1-0.1,4.2,0.8
			c0.2,0.2,0.5,0.5,0.8,0.7c0.2,0.1,0.6,0.1,0.8,0.3C344.1,342.3,344.3,341,344.7,339.7z"/>
		<path class="st32" d="M315.4,371.1c0.7,0.1,1.4,0.1,2.1,0.1c0.5,0,1.1,0.1,1.6,0.1c1,0.1,2.1,0.1,3.1,0.2c0.4,0,0.9,0.1,1.3,0
			c1-0.2,1.7-1.3,1.6-2.3c-0.1-0.9-0.9-1.7-1.7-2.2c-0.9-0.6-1.9-1.1-3-1.1c-1.2,0-2.6,0.7-3.7,1.2c-0.8,0.3-1.5,0.7-2.2,1.1
			c-0.7,0.5-1.2,1.2-1.4,2c-0.1,0.2-0.1,0.4,0.1,0.6c0.1,0.2,0.4,0.2,0.6,0.2C314.4,370.9,314.9,371,315.4,371.1z"/>
		<path class="st39" d="M329.8,344.1c-0.5,0.3-0.9,0.7-1.6,0.7c-0.6,0-1.2-0.2-1.7-0.5c-0.3-0.2-0.5,0.2-0.3,0.4
			c0.9,1.1,3.2,1.2,4-0.1C330.4,344.3,330.1,343.9,329.8,344.1z"/>
		<path class="st31" d="M350.7,369.1c-2.7,5.4-6.1,10.4-10.4,14.7c-0.4,0.4,0.2,1.1,0.6,0.6c4.5-4.2,8.1-9.2,10.6-14.9
			C351.6,369.1,350.9,368.6,350.7,369.1z"/>
		<circle class="st32" cx="337.6" cy="340.3" r="1.9"/>
	</g>
</g>
</svg>
